<svg width="20" height="18" viewBox="0 0 20 18" fill="none" xmlns="http://www.w3.org/2000/svg">
<path fill-rule="evenodd" clip-rule="evenodd" d="M13.0834 17.8111C13.1433 17.871 13.2144 17.9185 13.2928 17.9509C13.3711 17.9833 13.4551 18 13.5399 18C13.6247 18 13.7086 17.9833 13.787 17.9509C13.8653 17.9185 13.9365 17.871 13.9964 17.8111L19.1544 12.6686C19.2755 12.5479 19.3435 12.3842 19.3435 12.2135C19.3435 12.0428 19.2755 11.8791 19.1544 11.7584C19.0334 11.6377 18.8691 11.5699 18.6979 11.5699C18.5267 11.5699 18.3625 11.6377 18.2414 11.7584L14.1846 15.8043V3.21408C14.1846 2.36165 13.845 1.54414 13.2404 0.941382C12.6358 0.338625 11.8158 0 10.9608 0H0.644699C0.4737 0 0.309702 0.067725 0.188786 0.188276C0.0678711 0.308828 -5.91278e-05 0.472331 -5.91278e-05 0.642816C-5.91278e-05 0.813302 0.0678711 0.976804 0.188786 1.09736C0.309702 1.21791 0.4737 1.28563 0.644699 1.28563H10.9608C11.4738 1.28563 11.9658 1.48881 12.3286 1.85046C12.6913 2.21212 12.8951 2.70262 12.8951 3.21408V15.8043L8.83829 11.7584C8.71722 11.6377 8.55302 11.5699 8.3818 11.5699C8.21058 11.5699 8.04638 11.6377 7.92531 11.7584C7.80424 11.8791 7.73623 12.0428 7.73623 12.2135C7.73623 12.3842 7.80424 12.5479 7.92531 12.6686L13.0834 17.8111Z" fill="#AEBECC"/>
</svg>
