<svg width="1935" height="2162" viewBox="0 0 1935 2162" fill="none" xmlns="http://www.w3.org/2000/svg">
<path opacity="0.5" fill-rule="evenodd" clip-rule="evenodd" d="M1422.5 1299.02C1458.79 1368.31 1530.57 1428.76 1521.36 1505.42C1512.2 1581.65 1421.19 1611.32 1377.56 1673.1C1327.89 1743.42 1334.04 1875.63 1249.32 1890.59C1163.18 1905.79 1121.59 1768.08 1039.89 1732.71C958.211 1697.36 845.466 1756.23 785.08 1689.64C725.975 1624.45 754.464 1519.77 769.242 1434.23C782.647 1356.64 813.37 1284.55 865.042 1226.78C915.452 1170.42 983.6 1138.9 1055.12 1114.61C1134.36 1087.7 1221.91 1041.26 1298.37 1079.64C1374.62 1117.92 1382.55 1222.73 1422.5 1299.02Z" stroke="url(#paint0_linear_293_200)" stroke-width="7"/>
<path opacity="0.473684" fill-rule="evenodd" clip-rule="evenodd" d="M1372.73 1301.95C1399.97 1374.28 1463.09 1442.21 1444.83 1516.29C1426.67 1589.95 1333.85 1608.09 1283.62 1663.42C1226.45 1726.41 1216.56 1856.82 1131.68 1861.28C1045.37 1865.82 1021.16 1725.74 945.289 1681.21C869.442 1636.7 751.784 1680.86 700.58 1608.27C650.461 1537.22 691.002 1437.98 715.792 1355.86C738.277 1281.38 777.086 1214.38 834.714 1163.95C890.937 1114.74 961.565 1092.03 1034.63 1076.83C1115.58 1059.98 1207.03 1024.98 1277.39 1071.83C1347.57 1118.56 1342.73 1222.31 1372.73 1301.95Z" stroke="url(#paint1_linear_293_200)" stroke-width="7"/>
<path opacity="0.447368" fill-rule="evenodd" clip-rule="evenodd" d="M1322.09 1299.44C1340.1 1373.65 1393.81 1447.87 1366.99 1518.31C1340.32 1588.36 1247.11 1594.97 1191.2 1643.19C1127.56 1698.07 1102.17 1824.76 1018.4 1818.92C933.221 1812.97 926.34 1672.69 857.308 1619.88C788.294 1567.09 667.608 1596.23 626.136 1518.88C585.544 1443.16 637.241 1350.73 671.433 1273.19C702.446 1202.86 748.564 1141.83 811.143 1099.31C872.195 1057.83 944.184 1044.06 1017.66 1037.96C1099.06 1031.19 1192.95 1007.88 1256.3 1062.3C1319.49 1116.57 1302.25 1217.73 1322.09 1299.44Z" stroke="url(#paint2_linear_293_200)" stroke-width="7"/>
<path opacity="0.421053" fill-rule="evenodd" clip-rule="evenodd" d="M1271.26 1291.5C1279.99 1366.43 1323.71 1445.67 1288.94 1511.51C1254.36 1576.98 1162.19 1572.24 1101.57 1612.78C1032.57 1658.93 992.43 1780.1 911.001 1764.28C828.209 1748.19 838.347 1609.81 777.023 1549.73C715.714 1489.66 593.887 1503.69 562.537 1422.85C531.853 1343.73 593.662 1259.32 636.517 1187.41C675.388 1122.18 727.947 1067.89 794.417 1033.74C859.265 1000.42 931.5 995.592 1004.27 998.449C1084.89 1001.61 1179.74 990.063 1235.31 1051.05C1290.73 1111.88 1261.65 1208.99 1271.26 1291.5Z" stroke="url(#paint3_linear_293_200)" stroke-width="7"/>
<path opacity="0.394737" fill-rule="evenodd" clip-rule="evenodd" d="M1220.92 1278.2C1220.46 1352.7 1253.78 1435.65 1211.77 1496.01C1169.99 1556.04 1080.21 1540.29 1015.92 1572.74C942.723 1609.68 888.795 1723.63 810.878 1698.32C731.657 1672.59 758.249 1538.14 705.368 1471.86C652.5 1405.58 531.389 1404.68 510.388 1321.65C489.833 1240.39 560.58 1165.08 611.243 1099.74C657.196 1040.47 715.251 993.576 784.518 968.095C852.095 943.236 923.485 947.197 994.475 958.759C1073.12 971.567 1167.49 971.661 1214.62 1038.14C1261.62 1104.45 1221.43 1196.15 1220.92 1278.2Z" stroke="url(#paint4_linear_293_200)" stroke-width="7"/>
<path opacity="0.368421" fill-rule="evenodd" clip-rule="evenodd" d="M1171.72 1259.7C1162.3 1332.68 1184.98 1418 1136.54 1472.11C1088.37 1525.92 1002.27 1499.68 935.347 1523.75C859.166 1551.14 792.597 1656.35 719.277 1622.17C644.731 1587.41 686.974 1458.82 643.122 1387.48C599.282 1316.16 480.692 1300.7 470.101 1216.79C459.735 1134.65 538.137 1069.35 595.655 1011.4C647.826 958.832 710.368 919.854 781.323 903.214C850.547 886.979 920.038 899.453 988.224 919.329C1063.76 941.349 1156.24 952.799 1194.43 1023.64C1232.52 1094.28 1182.09 1179.34 1171.72 1259.7Z" stroke="url(#paint5_linear_293_200)" stroke-width="7"/>
<path opacity="0.342105" fill-rule="evenodd" clip-rule="evenodd" d="M1124.27 1236.25C1106.25 1306.64 1118.21 1392.99 1064.23 1440.19C1010.55 1487.13 929.337 1451.06 860.861 1466.59C782.912 1484.28 705.016 1579.38 637.282 1537.06C568.415 1494.02 625.284 1373.08 590.898 1297.89C556.521 1222.71 442.171 1193.29 441.891 1109.78C441.617 1028.04 526.304 973.469 589.643 923.592C647.094 878.352 713.071 847.676 784.605 839.904C854.394 832.322 920.99 852.908 985.415 880.592C1056.79 911.26 1146.04 933.609 1174.93 1007.63C1203.75 1081.45 1144.1 1158.74 1124.27 1236.25Z" stroke="url(#paint6_linear_293_200)" stroke-width="7"/>
<path opacity="0.315789" fill-rule="evenodd" clip-rule="evenodd" d="M1079.14 1208.16C1053.02 1274.97 1054.35 1361.02 995.775 1400.78C937.534 1440.32 862.303 1395.21 793.342 1402.19C714.841 1410.15 627.075 1493.97 565.805 1444.35C503.509 1393.89 573.782 1282.23 549.14 1204.41C524.504 1126.61 416.007 1084.03 425.782 1002.16C435.35 922.031 524.893 878.744 592.953 837.488C654.686 800.067 723.021 777.944 794.044 778.932C863.334 779.896 926.105 808.079 985.896 842.955C1052.13 881.591 1136.89 914.225 1156.3 990.231C1175.65 1066.04 1107.9 1134.6 1079.14 1208.16Z" stroke="url(#paint7_linear_293_200)" stroke-width="7"/>
<path opacity="0.289474" fill-rule="evenodd" clip-rule="evenodd" d="M1036.86 1175.82C1003.24 1238.13 994.179 1322.59 932.018 1354.51C870.205 1386.24 801.936 1332.99 733.54 1331.55C655.681 1329.9 559.617 1401.47 505.567 1345.49C450.612 1288.56 532.889 1187.61 518.114 1108.41C503.342 1029.23 402.18 974.46 421.607 895.429C440.623 818.074 533.549 786.432 605.187 754.196C670.165 724.957 739.77 711.5 809.226 721.008C876.988 730.284 935.09 765.443 989.466 806.801C1049.71 852.619 1128.81 894.782 1138.67 971.58C1148.51 1048.18 1073.89 1107.2 1036.86 1175.82Z" stroke="url(#paint8_linear_293_200)" stroke-width="7"/>
<path opacity="0.263158" fill-rule="evenodd" clip-rule="evenodd" d="M997.901 1139.65C957.467 1196.64 938.433 1278.29 873.708 1302.07C809.346 1325.73 748.886 1265.37 682.068 1255.73C606.007 1244.75 503.304 1303.31 457.099 1241.97C410.122 1179.61 502.857 1090.62 497.915 1011.26C492.974 931.919 400.479 866.112 429.017 791.033C456.95 717.546 551.776 697.722 625.821 674.757C692.983 653.928 762.778 649.113 829.664 666.776C894.918 684.008 947.596 725.432 995.879 772.481C1049.37 824.602 1121.77 875.412 1122.19 951.825C1122.61 1028.04 1042.43 1076.89 997.901 1139.65Z" stroke="url(#paint9_linear_293_200)" stroke-width="7"/>
<path opacity="0.236842" fill-rule="evenodd" clip-rule="evenodd" d="M962.658 1100.13C916.203 1151.09 887.74 1228.76 821.492 1244.28C755.616 1259.72 703.67 1193.33 639.395 1175.86C566.228 1155.97 458.605 1200.98 420.736 1135.36C382.235 1068.63 483.757 992.623 488.466 914.308C493.173 836.014 410.509 760.449 447.49 690.35C483.686 621.737 578.934 613.718 654.21 600.127C722.488 587.799 791.418 591.471 854.795 616.808C916.625 641.526 963.229 688.426 1004.85 740.306C1050.96 797.78 1115.75 856.242 1106.97 931.127C1098.22 1005.82 1013.81 1044.02 962.658 1100.13Z" stroke="url(#paint10_linear_293_200)" stroke-width="7"/>
<path opacity="0.210526" fill-rule="evenodd" clip-rule="evenodd" d="M931.47 1057.81C879.853 1102.12 842.64 1174.75 775.907 1181.99C709.549 1189.19 666.672 1117.94 605.839 1093.11C536.59 1064.85 425.798 1095.99 396.613 1027.18C366.941 957.225 475.49 894.995 489.521 818.878C503.549 742.781 431.7 658.859 476.342 594.664C520.037 531.831 614.263 535.424 689.604 531.16C757.941 527.292 824.991 539.17 883.998 571.594C941.566 603.226 981.556 654.748 1016.07 710.548C1054.31 772.364 1110.71 837.393 1093.11 909.662C1075.55 981.742 988.306 1009.01 931.47 1057.81Z" stroke="url(#paint11_linear_293_200)" stroke-width="7"/>
<path opacity="0.184211" fill-rule="evenodd" clip-rule="evenodd" d="M904.598 1013.22C848.737 1050.4 803.569 1117.04 737.369 1116.1C671.54 1115.18 638.134 1040.28 581.566 1008.67C517.172 972.681 404.964 989.854 384.668 918.99C364.034 846.941 477.786 799.061 500.677 726.231C523.563 653.42 463.318 562.633 514.742 505.152C565.076 448.889 656.89 463.726 731.16 468.602C798.525 473.025 862.737 492.708 916.604 531.537C969.157 569.42 1002.11 624.661 1029.19 683.433C1059.18 748.542 1106.58 818.978 1080.65 887.612C1054.79 956.065 966.108 972.279 904.598 1013.22Z" stroke="url(#paint12_linear_293_200)" stroke-width="7"/>
<path opacity="0.157895" fill-rule="evenodd" clip-rule="evenodd" d="M882.233 966.957C823.084 996.639 770.861 1056.43 706.176 1047.57C641.854 1038.75 618.161 961.439 566.594 923.703C507.892 880.745 395.997 884.077 384.653 812.281C373.12 739.284 490.219 706.084 521.383 637.551C552.539 569.036 504.488 472.942 561.735 422.859C617.768 373.838 705.851 399.386 777.961 413.08C843.367 425.5 903.852 452.476 951.908 496.951C998.791 540.34 1024.4 598.365 1043.84 659.14C1065.37 726.469 1103.3 801.101 1069.66 865.162C1036.12 929.055 947.363 934.273 882.233 966.957Z" stroke="url(#paint13_linear_293_200)" stroke-width="7"/>
<path opacity="0.131579" fill-rule="evenodd" clip-rule="evenodd" d="M864.487 919.603C803.034 941.545 744.739 993.785 682.501 977.343C620.613 960.993 606.722 882.492 560.793 839.372C508.51 790.287 398.604 780.109 396.134 708.492C393.623 635.676 512.212 617.251 550.949 553.932C589.675 490.629 554.204 390.826 616.248 348.693C676.977 307.453 760.107 343.031 829.03 365.09C891.545 385.099 947.494 418.76 989.177 468.051C1029.84 516.14 1047.93 575.995 1059.65 637.8C1072.62 706.269 1100.77 783.855 1060.15 842.502C1019.64 900.995 932.155 895.442 864.487 919.603Z" stroke="url(#paint14_linear_293_200)" stroke-width="7"/>
<path opacity="0.105263" fill-rule="evenodd" clip-rule="evenodd" d="M851.398 871.753C788.632 885.84 725.315 929.947 666.395 906.388C607.805 882.961 603.648 804.493 563.891 756.793C518.634 702.494 412.32 679.34 418.511 608.978C424.805 537.44 543.052 533.654 588.564 476.358C634.064 419.078 611.352 317.179 677.123 283.409C741.499 250.355 818.562 295.144 883.348 325.002C942.112 352.083 992.809 391.733 1027.67 444.961C1061.68 496.89 1072.18 557.62 1076.22 619.492C1080.69 688.035 1098.9 767.319 1052.11 819.818C1005.45 872.179 920.511 856.241 851.398 871.753Z" stroke="url(#paint15_linear_293_200)" stroke-width="7"/>
<path opacity="0.0789474" fill-rule="evenodd" clip-rule="evenodd" d="M842.928 823.99C779.835 830.233 712.595 865.772 657.787 835.654C603.286 805.705 608.646 728.456 575.484 677.027C537.735 618.483 436.514 583.07 451.024 514.993C465.776 445.776 581.907 456.271 633.313 405.694C684.705 355.131 674.729 252.736 743.127 227.603C810.075 203.002 880.081 256.063 939.872 293.046C994.104 326.59 1038.94 371.459 1066.64 427.707C1093.67 482.583 1096.65 543.245 1093.17 604.247C1089.3 671.826 1097.6 751.56 1045.52 797.292C993.575 842.904 912.403 817.116 842.928 823.99Z" stroke="url(#paint16_linear_293_200)" stroke-width="7"/>
<path opacity="0.0526316" fill-rule="evenodd" clip-rule="evenodd" d="M838.968 776.883C776.509 775.413 706.477 802.093 656.488 766.061C606.78 730.231 621.3 655.334 595.042 601.06C565.152 539.278 470.406 492.496 492.773 427.666C515.514 361.751 627.836 385.957 684.188 342.67C740.526 299.396 743.066 198.068 812.982 181.702C881.415 165.683 943.512 225.976 997.549 269.319C1046.56 308.633 1085.02 357.892 1105.37 416.223C1125.21 473.131 1120.84 532.809 1110.11 592.043C1098.21 657.664 1096.74 736.63 1040.32 775.098C984.037 813.465 907.743 778.503 838.968 776.883Z" stroke="url(#paint17_linear_293_200)" stroke-width="7"/>
<path opacity="0.0263158" fill-rule="evenodd" clip-rule="evenodd" d="M839.338 730.975C778.44 722.038 706.757 739.715 662.201 698.486C617.896 657.488 641.085 586.007 621.925 529.794C600.114 465.803 513.084 408.691 542.738 347.994C572.888 286.282 679.816 323.432 740.116 287.878C800.4 252.333 815.048 153.573 885.38 145.967C954.219 138.522 1007.7 204.923 1055.34 253.786C1098.55 298.106 1130.24 350.882 1143.13 410.352C1155.71 468.372 1144.27 526.193 1126.66 582.815C1107.15 645.542 1096.24 722.568 1036.44 753.403C976.802 784.156 906.395 740.815 839.338 730.975Z" stroke="url(#paint18_linear_293_200)" stroke-width="7"/>
<defs>
<linearGradient id="paint0_linear_293_200" x1="1301.39" y1="1124.55" x2="1107.38" y2="1792.09" gradientUnits="userSpaceOnUse">
<stop stop-color="#672B0A"/>
<stop offset="1" stop-color="#092A5C"/>
</linearGradient>
<linearGradient id="paint1_linear_293_200" x1="1274.96" y1="1116.24" x2="1004.26" y2="1747.54" gradientUnits="userSpaceOnUse">
<stop stop-color="#672B0A"/>
<stop offset="1" stop-color="#092A5C"/>
</linearGradient>
<linearGradient id="paint2_linear_293_200" x1="1248.57" y1="1105.55" x2="907.078" y2="1691.99" gradientUnits="userSpaceOnUse">
<stop stop-color="#672B0A"/>
<stop offset="1" stop-color="#092A5C"/>
</linearGradient>
<linearGradient id="paint3_linear_293_200" x1="1222.52" y1="1092.53" x2="817.075" y2="1626.37" gradientUnits="userSpaceOnUse">
<stop stop-color="#672B0A"/>
<stop offset="1" stop-color="#092A5C"/>
</linearGradient>
<linearGradient id="paint4_linear_293_200" x1="1197.09" y1="1077.27" x2="735.345" y2="1551.77" gradientUnits="userSpaceOnUse">
<stop stop-color="#672B0A"/>
<stop offset="1" stop-color="#092A5C"/>
</linearGradient>
<linearGradient id="paint5_linear_293_200" x1="1172.54" y1="1059.88" x2="662.835" y2="1469.35" gradientUnits="userSpaceOnUse">
<stop stop-color="#672B0A"/>
<stop offset="1" stop-color="#092A5C"/>
</linearGradient>
<linearGradient id="paint6_linear_293_200" x1="1149.12" y1="1040.51" x2="600.319" y2="1380.43" gradientUnits="userSpaceOnUse">
<stop stop-color="#672B0A"/>
<stop offset="1" stop-color="#092A5C"/>
</linearGradient>
<linearGradient id="paint7_linear_293_200" x1="1127.05" y1="1019.35" x2="548.401" y2="1286.35" gradientUnits="userSpaceOnUse">
<stop stop-color="#672B0A"/>
<stop offset="1" stop-color="#092A5C"/>
</linearGradient>
<linearGradient id="paint8_linear_293_200" x1="1106.51" y1="996.594" x2="507.505" y2="1188.52" gradientUnits="userSpaceOnUse">
<stop stop-color="#672B0A"/>
<stop offset="1" stop-color="#092A5C"/>
</linearGradient>
<linearGradient id="paint9_linear_293_200" x1="1087.69" y1="972.461" x2="477.869" y2="1088.37" gradientUnits="userSpaceOnUse">
<stop stop-color="#672B0A"/>
<stop offset="1" stop-color="#092A5C"/>
</linearGradient>
<linearGradient id="paint10_linear_293_200" x1="1070.7" y1="947.191" x2="459.552" y2="987.326" gradientUnits="userSpaceOnUse">
<stop stop-color="#672B0A"/>
<stop offset="1" stop-color="#092A5C"/>
</linearGradient>
<linearGradient id="paint11_linear_293_200" x1="1055.66" y1="921.033" x2="452.431" y2="886.812" gradientUnits="userSpaceOnUse">
<stop stop-color="#672B0A"/>
<stop offset="1" stop-color="#092A5C"/>
</linearGradient>
<linearGradient id="paint12_linear_293_200" x1="1042.62" y1="894.245" x2="456.212" y2="788.191" gradientUnits="userSpaceOnUse">
<stop stop-color="#672B0A"/>
<stop offset="1" stop-color="#092A5C"/>
</linearGradient>
<linearGradient id="paint13_linear_293_200" x1="1031.64" y1="867.087" x2="470.437" y2="692.767" gradientUnits="userSpaceOnUse">
<stop stop-color="#672B0A"/>
<stop offset="1" stop-color="#092A5C"/>
</linearGradient>
<linearGradient id="paint14_linear_293_200" x1="1022.71" y1="839.819" x2="494.491" y2="601.76" gradientUnits="userSpaceOnUse">
<stop stop-color="#672B0A"/>
<stop offset="1" stop-color="#092A5C"/>
</linearGradient>
<linearGradient id="paint15_linear_293_200" x1="1015.8" y1="812.697" x2="527.624" y2="516.29" gradientUnits="userSpaceOnUse">
<stop stop-color="#672B0A"/>
<stop offset="1" stop-color="#092A5C"/>
</linearGradient>
<linearGradient id="paint16_linear_293_200" x1="1010.85" y1="785.967" x2="568.959" y2="437.36" gradientUnits="userSpaceOnUse">
<stop stop-color="#672B0A"/>
<stop offset="1" stop-color="#092A5C"/>
</linearGradient>
<linearGradient id="paint17_linear_293_200" x1="1007.77" y1="759.862" x2="617.512" y2="365.842" gradientUnits="userSpaceOnUse">
<stop stop-color="#672B0A"/>
<stop offset="1" stop-color="#092A5C"/>
</linearGradient>
<linearGradient id="paint18_linear_293_200" x1="1006.45" y1="734.599" x2="672.213" y2="302.467" gradientUnits="userSpaceOnUse">
<stop stop-color="#672B0A"/>
<stop offset="1" stop-color="#092A5C"/>
</linearGradient>
</defs>
</svg>
