<svg width="2107" height="2290" viewBox="0 0 2107 2290" fill="none" xmlns="http://www.w3.org/2000/svg">
<path opacity="0.5" fill-rule="evenodd" clip-rule="evenodd" d="M550.042 1183.52C483.975 1141.66 391.591 1125.2 361.237 1054.2C331.054 983.603 395.032 912.4 401.929 837.086C409.781 751.352 338.35 639.93 404.242 584.616C471.236 528.376 576.115 626.847 664.551 616.624C752.964 606.403 821.166 499.043 906.76 526.524C990.539 553.423 1018.21 658.325 1048.18 739.796C1075.37 813.692 1084.8 891.482 1068.94 967.347C1053.46 1041.36 1010.21 1102.74 960.411 1159.53C905.245 1222.45 852.643 1306.45 767.239 1311.44C682.06 1316.42 622.79 1229.61 550.042 1183.52Z" stroke="url(#paint0_linear_293_222)" stroke-width="7"/>
<path opacity="0.473684" fill-rule="evenodd" clip-rule="evenodd" d="M591.683 1156.09C531.925 1107.08 443.299 1079.81 422.075 1006.52C400.97 933.651 472.288 871.528 488.118 798.497C506.139 715.362 449.493 597.483 520.776 551.174C593.252 504.089 684.26 613.296 772.226 613.924C860.169 614.552 939.983 517.478 1020.62 554.741C1099.55 591.214 1114.06 697.427 1133.65 780.938C1151.42 856.685 1151.31 934.111 1126.62 1006.6C1102.53 1077.33 1052.72 1132.31 997.047 1182.01C935.368 1237.07 873.668 1313.11 789.305 1307.72C705.165 1302.34 657.484 1210.06 591.683 1156.09Z" stroke="url(#paint1_linear_293_222)" stroke-width="7"/>
<path opacity="0.447368" fill-rule="evenodd" clip-rule="evenodd" d="M636.794 1132.94C584.093 1077.68 500.467 1040.26 488.474 965.846C476.549 891.846 553.96 839.52 578.273 769.812C605.948 690.462 564.587 568.048 640.062 531.224C716.799 493.784 792.9 611.834 879.085 623.046C965.248 634.255 1055.2 548.679 1129.79 594.933C1202.8 640.206 1204.25 746.105 1213.4 830.355C1221.71 906.772 1212.29 982.682 1179.35 1050.79C1147.22 1117.24 1091.76 1165.16 1031.18 1207.19C964.071 1253.75 894.416 1320.88 812.338 1305.43C730.476 1290.02 694.824 1193.79 636.794 1132.94Z" stroke="url(#paint2_linear_293_222)" stroke-width="7"/>
<path opacity="0.421053" fill-rule="evenodd" clip-rule="evenodd" d="M684.784 1114.41C639.762 1053.89 562.274 1007.12 559.469 932.716C556.681 858.726 638.876 816.746 671.1 751.329C707.783 676.863 681.96 551.859 760.39 524.845C840.132 497.379 900.542 622.288 983.693 643.662C1066.82 665.029 1165.31 591.96 1232.88 646.294C1299.02 699.476 1287.69 803.48 1286.53 887.186C1285.48 963.111 1267.11 1036.4 1226.62 1099.21C1187.12 1160.49 1126.98 1200.79 1062.53 1234.71C991.129 1272.27 914.757 1329.7 836.143 1304.67C757.735 1279.7 734.359 1181.06 684.784 1114.41Z" stroke="url(#paint3_linear_293_222)" stroke-width="7"/>
<path opacity="0.394737" fill-rule="evenodd" clip-rule="evenodd" d="M735.03 1100.76C698.177 1036.01 627.842 980.834 634.045 907.552C640.213 834.681 725.838 803.426 765.298 743.177C810.216 674.593 799.941 548.939 880.075 531.902C961.55 514.579 1005.74 644.305 1084.68 675.272C1163.6 706.23 1268.94 646.459 1328.64 707.861C1387.07 767.961 1363.46 868.554 1352.26 950.474C1342.09 1024.78 1315.26 1094.42 1268.02 1151.12C1221.92 1206.43 1158.12 1238.7 1090.86 1264.18C1016.34 1292.41 934.569 1339.51 860.516 1305.5C786.657 1271.58 775.609 1172.07 735.03 1100.76Z" stroke="url(#paint4_linear_293_222)" stroke-width="7"/>
<path opacity="0.368421" fill-rule="evenodd" clip-rule="evenodd" d="M786.888 1092.18C758.558 1024.27 696.258 961.721 711.153 890.639C725.964 819.954 813.647 799.627 859.57 745.323C911.846 683.507 916.891 559.106 997.482 552.054C1079.42 544.884 1107.13 677.361 1180.78 717.218C1254.4 757.065 1364.84 711.161 1415.96 778.535C1466.01 844.479 1430.76 940.236 1409.93 1019.18C1391.03 1090.79 1356.35 1155.82 1303.22 1205.71C1251.39 1254.38 1184.97 1278.32 1115.99 1295.2C1039.56 1313.9 953.741 1350.23 885.251 1307.97C816.941 1265.83 818.084 1166.96 786.888 1092.18Z" stroke="url(#paint5_linear_293_222)" stroke-width="7"/>
<path opacity="0.342105" fill-rule="evenodd" clip-rule="evenodd" d="M839.707 1088.76C820.114 1018.79 766.585 949.995 789.732 882.124C812.748 814.634 901.119 805.267 952.653 757.575C1011.32 703.285 1031.22 581.974 1111.05 584.764C1192.21 587.601 1203.42 720.769 1270.8 768.696C1338.16 816.611 1451.9 784.916 1493.9 857.099C1535.01 927.752 1488.95 1017.36 1459.04 1092.22C1431.9 1160.12 1390.1 1219.68 1332.04 1262.18C1275.39 1303.64 1207.42 1319.11 1137.79 1327.34C1060.64 1336.47 972.177 1361.74 910.142 1312.09C848.27 1262.57 861.283 1165.8 839.707 1088.76Z" stroke="url(#paint6_linear_293_222)" stroke-width="7"/>
<path opacity="0.315789" fill-rule="evenodd" clip-rule="evenodd" d="M892.831 1090.52C882.049 1019.6 837.877 945.746 868.719 882.026C899.387 818.662 987.098 820.119 1043.33 779.587C1107.33 733.449 1141.43 616.972 1219.3 629.313C1298.48 641.859 1293.45 773.7 1353.7 828.771C1413.94 883.829 1529.19 866.46 1561.66 942.246C1593.44 1016.42 1537.53 1098.68 1499.22 1168.44C1464.47 1231.72 1416.35 1285.04 1354.35 1319.7C1293.86 1353.51 1225.41 1360.49 1156.19 1360.18C1079.51 1359.84 989.79 1373.95 934.981 1317.83C880.316 1261.86 904.704 1168.61 892.831 1090.52Z" stroke="url(#paint7_linear_293_222)" stroke-width="7"/>
<path opacity="0.289474" fill-rule="evenodd" clip-rule="evenodd" d="M945.619 1097.4C943.585 1026.62 909.197 948.943 947.073 890.224C984.737 831.834 1070.48 843.814 1130.44 810.869C1198.69 773.366 1246.1 663.351 1320.9 684.811C1396.95 706.629 1376.17 835.193 1428.57 896.397C1480.96 957.586 1595.95 954.435 1618.64 1032.59C1640.85 1109.09 1576.19 1182.96 1530.27 1246.69C1488.62 1304.5 1435.07 1350.96 1370.16 1377.45C1306.84 1403.3 1238.94 1401.9 1171.17 1393.27C1096.1 1383.72 1006.51 1386.75 959.57 1325.17C912.752 1263.76 947.858 1175.33 945.619 1097.4Z" stroke="url(#paint8_linear_293_222)" stroke-width="7"/>
<path opacity="0.263158" fill-rule="evenodd" clip-rule="evenodd" d="M997.447 1109.24C1003.97 1039.67 979.628 959.441 1023.79 906.477C1067.7 853.809 1150.24 875.857 1212.93 850.796C1284.28 822.268 1343.95 720.203 1414.63 750.22C1486.5 780.74 1450.68 904.179 1494.64 970.435C1538.59 1036.67 1651.6 1047.42 1664.42 1126.71C1676.97 1204.31 1604.76 1268.9 1552.12 1325.81C1504.37 1377.43 1446.34 1416.49 1379.58 1434.64C1314.45 1452.34 1248.12 1442.81 1182.78 1426.2C1110.4 1407.81 1022.29 1400.01 983.718 1334.04C945.249 1268.25 990.267 1185.85 997.447 1109.24Z" stroke="url(#paint9_linear_293_222)" stroke-width="7"/>
<path opacity="0.236842" fill-rule="evenodd" clip-rule="evenodd" d="M1047.72 1125.84C1062.48 1058.48 1048.29 976.981 1097.9 930.417C1147.24 884.115 1225.42 915.633 1289.81 898.625C1363.12 879.264 1433.82 786.475 1499.43 824.373C1566.14 862.904 1516.22 979.494 1551.3 1049.67C1586.37 1119.83 1695.74 1143.94 1698.76 1223.14C1701.72 1300.65 1623.25 1355.22 1564.85 1404.63C1511.88 1449.45 1450.35 1480.73 1382.8 1490.48C1316.89 1499.99 1253.08 1482.67 1191.1 1458.55C1122.43 1431.84 1037.08 1413.6 1007.25 1344.36C977.487 1275.3 1031.48 1200.01 1047.72 1125.84Z" stroke="url(#paint10_linear_293_222)" stroke-width="7"/>
<path opacity="0.210526" fill-rule="evenodd" clip-rule="evenodd" d="M1095.9 1146.9C1118.44 1082.71 1114.35 1001.2 1168.53 961.572C1222.4 922.161 1295.15 962.421 1360.25 953.507C1434.35 943.36 1514.73 860.997 1574.41 905.993C1635.08 951.741 1572.19 1059.91 1598.1 1132.84C1624 1205.76 1728.18 1242.51 1721.62 1320.43C1715.2 1396.69 1631.8 1440.69 1568.68 1482.06C1511.43 1519.57 1447.43 1542.81 1380.12 1544.24C1314.44 1545.63 1254.05 1521 1196.26 1489.93C1132.24 1455.52 1050.88 1427.4 1029.99 1356.01C1009.16 1284.81 1071.07 1217.58 1095.9 1146.9Z" stroke="url(#paint11_linear_293_222)" stroke-width="7"/>
<path opacity="0.184211" fill-rule="evenodd" clip-rule="evenodd" d="M1141.46 1172.08C1171.25 1111.95 1177.05 1031.65 1234.84 999.362C1292.32 967.251 1358.7 1015.41 1423.49 1014.5C1497.25 1013.47 1585.84 942.495 1638.85 993.717C1692.74 1045.8 1618.17 1144.14 1634.76 1218.66C1651.35 1293.16 1748.92 1341.66 1733.12 1417.15C1717.66 1491.04 1630.73 1524.1 1563.97 1557.01C1503.42 1586.86 1437.97 1601.92 1371.91 1595.23C1307.45 1588.7 1251.29 1557.33 1198.46 1519.98C1139.93 1478.59 1063.66 1441.29 1051.8 1368.89C1039.97 1296.67 1108.66 1238.29 1141.46 1172.08Z" stroke="url(#paint12_linear_293_222)" stroke-width="7"/>
<path opacity="0.157895" fill-rule="evenodd" clip-rule="evenodd" d="M1183.96 1200.96C1220.35 1145.68 1235.68 1067.78 1296.13 1043.12C1356.24 1018.59 1415.41 1073.7 1478.94 1080.6C1551.26 1088.45 1646.5 1029.62 1692.22 1086.12C1738.7 1143.57 1653.89 1230.87 1661.17 1305.81C1668.45 1380.72 1758.11 1439.92 1733.57 1511.91C1709.56 1582.38 1620.5 1604.3 1551.2 1628.5C1488.35 1650.44 1422.48 1657.32 1358.63 1642.83C1296.33 1628.7 1245.14 1591.25 1197.92 1548.34C1145.61 1500.8 1075.44 1455.13 1072.54 1382.83C1069.64 1310.73 1143.9 1261.83 1183.96 1200.96Z" stroke="url(#paint13_linear_293_222)" stroke-width="7"/>
<path opacity="0.131579" fill-rule="evenodd" clip-rule="evenodd" d="M1223.01 1233.1C1265.26 1183.37 1289.62 1108.98 1351.74 1092.1C1413.51 1075.31 1464.79 1136.35 1526.13 1150.73C1595.95 1167.1 1696.22 1120.96 1734.17 1181.75C1772.75 1243.55 1679.26 1318.8 1677.38 1393.01C1675.49 1467.19 1756.11 1535.89 1723.44 1603.4C1691.47 1669.48 1601.69 1680.23 1530.97 1695.59C1466.83 1709.52 1401.54 1708.34 1340.8 1686.5C1281.54 1665.18 1235.94 1622.39 1194.9 1574.72C1149.42 1521.92 1086.26 1468.8 1092.11 1397.7C1097.94 1326.79 1176.49 1287.85 1223.01 1233.1Z" stroke="url(#paint14_linear_293_222)" stroke-width="7"/>
<path opacity="0.105263" fill-rule="evenodd" clip-rule="evenodd" d="M1258.27 1267.99C1305.58 1224.41 1338.36 1154.55 1401.17 1145.49C1463.62 1136.49 1506.46 1202.36 1564.74 1223.8C1631.08 1248.19 1734.73 1215.09 1764.55 1279.12C1794.87 1344.22 1694.35 1406.62 1683.59 1479C1672.82 1551.35 1743.44 1628.24 1703.37 1690.37C1664.14 1751.19 1575.01 1750.93 1503.97 1757.47C1439.54 1763.39 1375.81 1754.41 1319.01 1725.74C1263.59 1697.77 1224.13 1650.43 1189.7 1598.87C1151.56 1541.74 1096.14 1482.18 1110.41 1413.32C1124.65 1344.65 1206.17 1315.98 1258.27 1267.99Z" stroke="url(#paint15_linear_293_222)" stroke-width="7"/>
<path opacity="0.0789474" fill-rule="evenodd" clip-rule="evenodd" d="M1289.48 1305.12C1341 1268.17 1381.47 1203.77 1443.99 1202.45C1506.16 1201.13 1540.15 1270.71 1594.58 1298.67C1656.54 1330.5 1761.91 1310.56 1783.38 1376.77C1805.22 1444.09 1699.4 1493.06 1680.17 1562.57C1660.94 1632.05 1720.78 1715.74 1674.11 1771.71C1628.43 1826.48 1541.27 1815.53 1471 1813.4C1407.26 1811.47 1346 1795.03 1293.88 1760.17C1243.04 1726.16 1210.12 1675.12 1182.64 1620.54C1152.2 1560.09 1105.15 1495.18 1127.39 1429.54C1149.56 1364.06 1232.76 1345.81 1289.48 1305.12Z" stroke="url(#paint16_linear_293_222)" stroke-width="7"/>
<path opacity="0.0526316" fill-rule="evenodd" clip-rule="evenodd" d="M1316.47 1343.94C1371.29 1313.98 1418.6 1255.86 1479.91 1262.07C1540.87 1268.24 1565.75 1340.37 1615.63 1374.24C1672.4 1412.8 1777.84 1405.94 1790.89 1473.27C1804.15 1541.72 1694.78 1576.92 1667.62 1642.58C1640.46 1708.23 1688.93 1797.25 1636.56 1846.38C1585.31 1894.47 1501.38 1873.31 1432.91 1862.79C1370.81 1853.25 1312.87 1829.82 1266.09 1789.48C1220.45 1750.12 1194.39 1696.25 1174.08 1639.58C1151.57 1576.8 1113.35 1507.68 1142.99 1446.16C1172.54 1384.79 1256.1 1376.92 1316.47 1343.94Z" stroke="url(#paint17_linear_293_222)" stroke-width="7"/>
<path opacity="0.0263158" fill-rule="evenodd" clip-rule="evenodd" d="M1339.1 1383.88C1396.31 1361.17 1449.55 1310.02 1508.75 1323.45C1567.62 1336.8 1583.28 1410.3 1627.98 1449.4C1678.86 1493.91 1782.79 1499.86 1787.45 1567.25C1792.2 1635.77 1681.02 1657.06 1646.58 1718C1612.14 1778.92 1648.84 1871.78 1591.73 1913.53C1535.84 1954.4 1456.32 1923.63 1390.63 1905.14C1331.06 1888.36 1277.22 1858.5 1236.32 1813.44C1196.42 1769.48 1177.42 1713.69 1164.35 1655.85C1149.89 1591.77 1120.83 1519.61 1157.19 1463.01C1193.46 1406.55 1276.11 1408.89 1339.1 1383.88Z" stroke="url(#paint18_linear_293_222)" stroke-width="7"/>
<defs>
<linearGradient id="paint0_linear_293_222" x1="742.164" y1="1274.06" x2="576.416" y2="598.949" gradientUnits="userSpaceOnUse">
<stop stop-color="#672B0A"/>
<stop offset="1" stop-color="#092A5C"/>
</linearGradient>
<linearGradient id="paint1_linear_293_222" x1="769.212" y1="1268.04" x2="687.992" y2="585.964" gradientUnits="userSpaceOnUse">
<stop stop-color="#672B0A"/>
<stop offset="1" stop-color="#092A5C"/>
</linearGradient>
<linearGradient id="paint2_linear_293_222" x1="797.409" y1="1264.1" x2="799.928" y2="585.481" gradientUnits="userSpaceOnUse">
<stop stop-color="#672B0A"/>
<stop offset="1" stop-color="#092A5C"/>
</linearGradient>
<linearGradient id="paint3_linear_293_222" x1="826.478" y1="1262.35" x2="910.682" y2="597.307" gradientUnits="userSpaceOnUse">
<stop stop-color="#672B0A"/>
<stop offset="1" stop-color="#092A5C"/>
</linearGradient>
<linearGradient id="paint4_linear_293_222" x1="856.133" y1="1262.86" x2="1018.77" y2="621.057" gradientUnits="userSpaceOnUse">
<stop stop-color="#672B0A"/>
<stop offset="1" stop-color="#092A5C"/>
</linearGradient>
<linearGradient id="paint5_linear_293_222" x1="886.086" y1="1265.64" x2="1122.77" y2="656.171" gradientUnits="userSpaceOnUse">
<stop stop-color="#672B0A"/>
<stop offset="1" stop-color="#092A5C"/>
</linearGradient>
<linearGradient id="paint6_linear_293_222" x1="916.051" y1="1270.7" x2="1221.37" y2="701.924" gradientUnits="userSpaceOnUse">
<stop stop-color="#672B0A"/>
<stop offset="1" stop-color="#092A5C"/>
</linearGradient>
<linearGradient id="paint7_linear_293_222" x1="945.749" y1="1277.99" x2="1313.37" y2="757.442" gradientUnits="userSpaceOnUse">
<stop stop-color="#672B0A"/>
<stop offset="1" stop-color="#092A5C"/>
</linearGradient>
<linearGradient id="paint8_linear_293_222" x1="974.911" y1="1287.43" x2="1397.71" y2="821.719" gradientUnits="userSpaceOnUse">
<stop stop-color="#672B0A"/>
<stop offset="1" stop-color="#092A5C"/>
</linearGradient>
<linearGradient id="paint9_linear_293_222" x1="1003.28" y1="1298.92" x2="1473.45" y2="893.635" gradientUnits="userSpaceOnUse">
<stop stop-color="#672B0A"/>
<stop offset="1" stop-color="#092A5C"/>
</linearGradient>
<linearGradient id="paint10_linear_293_222" x1="1030.63" y1="1312.31" x2="1539.83" y2="971.978" gradientUnits="userSpaceOnUse">
<stop stop-color="#672B0A"/>
<stop offset="1" stop-color="#092A5C"/>
</linearGradient>
<linearGradient id="paint11_linear_293_222" x1="1056.74" y1="1327.44" x2="1596.25" y2="1055.47" gradientUnits="userSpaceOnUse">
<stop stop-color="#672B0A"/>
<stop offset="1" stop-color="#092A5C"/>
</linearGradient>
<linearGradient id="paint12_linear_293_222" x1="1081.42" y1="1344.13" x2="1642.29" y2="1142.76" gradientUnits="userSpaceOnUse">
<stop stop-color="#672B0A"/>
<stop offset="1" stop-color="#092A5C"/>
</linearGradient>
<linearGradient id="paint13_linear_293_222" x1="1104.51" y1="1362.15" x2="1677.68" y2="1232.52" gradientUnits="userSpaceOnUse">
<stop stop-color="#672B0A"/>
<stop offset="1" stop-color="#092A5C"/>
</linearGradient>
<linearGradient id="paint14_linear_293_222" x1="1125.87" y1="1381.3" x2="1702.36" y2="1323.36" gradientUnits="userSpaceOnUse">
<stop stop-color="#672B0A"/>
<stop offset="1" stop-color="#092A5C"/>
</linearGradient>
<linearGradient id="paint15_linear_293_222" x1="1145.42" y1="1401.34" x2="1716.4" y2="1413.94" gradientUnits="userSpaceOnUse">
<stop stop-color="#672B0A"/>
<stop offset="1" stop-color="#092A5C"/>
</linearGradient>
<linearGradient id="paint16_linear_293_222" x1="1163.07" y1="1422.01" x2="1720.06" y2="1502.97" gradientUnits="userSpaceOnUse">
<stop stop-color="#672B0A"/>
<stop offset="1" stop-color="#092A5C"/>
</linearGradient>
<linearGradient id="paint17_linear_293_222" x1="1178.79" y1="1443.08" x2="1713.77" y2="1589.18" gradientUnits="userSpaceOnUse">
<stop stop-color="#672B0A"/>
<stop offset="1" stop-color="#092A5C"/>
</linearGradient>
<linearGradient id="paint18_linear_293_222" x1="1192.57" y1="1464.29" x2="1698.09" y2="1671.41" gradientUnits="userSpaceOnUse">
<stop stop-color="#672B0A"/>
<stop offset="1" stop-color="#092A5C"/>
</linearGradient>
</defs>
</svg>
