<svg width="33" height="33" viewBox="0 0 33 33" fill="none" xmlns="http://www.w3.org/2000/svg">
<path d="M19.9048 9.77783H3.31746C1.48788 9.77783 0 11.2657 0 13.0953V29.6826C0 31.5122 1.48788 33.0001 3.31746 33.0001H19.9048C21.7343 33.0001 23.2222 31.5122 23.2222 29.6826V13.0953C23.2222 11.2657 21.7343 9.77783 19.9048 9.77783Z" fill="#E1E7EC"/>
<path d="M29.8571 0H14.1429C13.3093 0 12.5099 0.331121 11.9205 0.920521C11.3311 1.50992 11 2.30932 11 3.14286V6.28571H23.5714C24.405 6.28571 25.2044 6.61684 25.7938 7.20624C26.3832 7.79564 26.7143 8.59503 26.7143 9.42857V22H29.8571C30.6907 22 31.4901 21.6689 32.0795 21.0795C32.6689 20.4901 33 19.6907 33 18.8571V3.14286C33 2.30932 32.6689 1.50992 32.0795 0.920521C31.4901 0.331121 30.6907 0 29.8571 0Z" fill="#E1E7EC"/>
</svg>
