<svg width="44" height="33" viewBox="0 0 44 33" fill="none" xmlns="http://www.w3.org/2000/svg">
<path d="M43.1836 11.1295C43.5118 10.8687 44 11.1127 44 11.525V28.7302C44 30.9598 42.1904 32.7686 39.96 32.7686H4.94629C2.71585 32.7686 0.90625 30.9598 0.90625 28.7302V11.5334C0.90625 11.1127 1.386 10.8771 1.72267 11.1379C3.60803 12.6019 6.1078 14.4612 14.6929 20.6955C16.4688 21.9911 19.4652 24.7171 22.4531 24.7002C25.4579 24.7255 28.5132 21.9407 30.2218 20.6955C38.8069 14.4612 41.2982 12.5935 43.1836 11.1295ZM22.4531 21.9996C24.4058 22.0332 27.217 19.5429 28.631 18.5164C39.8 10.4144 40.6501 9.70768 43.2257 7.68848C43.7138 7.30988 44 6.72094 44 6.09836V4.49983C44 2.27029 42.1904 0.461426 39.96 0.461426H4.94629C2.71585 0.461426 0.90625 2.27029 0.90625 4.49983V6.09836C0.90625 6.72094 1.19242 7.30146 1.68059 7.68848C4.25612 9.69926 5.10621 10.4144 16.2752 18.5164C17.6892 19.5429 20.5004 22.0332 22.4531 21.9996Z" fill="black"/>
</svg>
