<svg width="68" height="67" viewBox="0 0 68 67" fill="none" xmlns="http://www.w3.org/2000/svg">
<path d="M22.7444 53.3855C22.7444 53.6597 22.429 53.879 22.0315 53.879C21.579 53.9202 21.2637 53.7008 21.2637 53.3855C21.2637 53.1113 21.579 52.8919 21.9766 52.8919C22.3879 52.8508 22.7444 53.0702 22.7444 53.3855ZM18.4806 52.7685C18.3847 53.0427 18.6589 53.3581 19.0702 53.4403C19.4266 53.5774 19.8379 53.4403 19.9202 53.1661C20.0024 52.8919 19.7419 52.5766 19.3306 52.4532C18.9742 52.3572 18.5766 52.4943 18.4806 52.7685ZM24.5403 52.5355C24.1427 52.6314 23.8685 52.8919 23.9097 53.2072C23.9508 53.4814 24.3073 53.6597 24.7185 53.5637C25.1161 53.4677 25.3903 53.2072 25.3492 52.9331C25.3081 52.6726 24.9379 52.4943 24.5403 52.5355ZM33.5613 0C14.546 0 0 14.4363 0 33.4516C0 48.6556 9.56936 61.6661 23.2379 66.2452C24.9927 66.5605 25.6097 65.4774 25.6097 64.5863C25.6097 63.7363 25.5685 59.0476 25.5685 56.1685C25.5685 56.1685 15.9718 58.225 13.9565 52.0831C13.9565 52.0831 12.3935 48.0935 10.1452 47.0653C10.1452 47.0653 7.00565 44.9129 10.3645 44.954C10.3645 44.954 13.7782 45.2282 15.6565 48.4911C18.6589 53.7831 23.6903 52.2613 25.6508 51.3564C25.9661 49.1629 26.8573 47.6411 27.8444 46.7363C20.1806 45.8863 12.4484 44.7758 12.4484 31.5871C12.4484 27.8169 13.4903 25.925 15.6839 23.5121C15.3274 22.621 14.1621 18.9468 16.0403 14.2032C18.9056 13.3121 25.5 17.9048 25.5 17.9048C28.2419 17.1371 31.1895 16.7395 34.1097 16.7395C37.0298 16.7395 39.9774 17.1371 42.7194 17.9048C42.7194 17.9048 49.3137 13.2984 52.179 14.2032C54.0573 18.9605 52.8919 22.621 52.5355 23.5121C54.729 25.9387 56.0726 27.8306 56.0726 31.5871C56.0726 44.8169 47.9976 45.8726 40.3339 46.7363C41.5952 47.8193 42.6645 49.8758 42.6645 53.0976C42.6645 57.7177 42.6234 63.4347 42.6234 64.5589C42.6234 65.45 43.254 66.5331 44.9952 66.2177C58.7048 61.6661 68 48.6556 68 33.4516C68 14.4363 52.5766 0 33.5613 0ZM13.3258 47.2847C13.1476 47.4218 13.1887 47.7371 13.4218 47.9976C13.6411 48.2169 13.9565 48.3129 14.1347 48.1347C14.3129 47.9976 14.2718 47.6822 14.0387 47.4218C13.8194 47.2024 13.504 47.1064 13.3258 47.2847ZM11.8452 46.1742C11.7492 46.3524 11.8863 46.5718 12.1605 46.7089C12.3798 46.846 12.654 46.8048 12.75 46.6129C12.846 46.4347 12.7089 46.2153 12.4347 46.0782C12.1605 45.996 11.9411 46.0371 11.8452 46.1742ZM16.2871 51.0548C16.0677 51.2331 16.15 51.6443 16.4653 51.9048C16.7806 52.2202 17.1782 52.2613 17.3565 52.0419C17.5347 51.8637 17.4524 51.4524 17.1782 51.1919C16.8766 50.8766 16.4653 50.8355 16.2871 51.0548ZM14.7242 49.0395C14.5048 49.1766 14.5048 49.5331 14.7242 49.8484C14.9435 50.1637 15.3137 50.3008 15.4919 50.1637C15.7113 49.9855 15.7113 49.629 15.4919 49.3137C15.3 48.9984 14.9435 48.8613 14.7242 49.0395Z" fill="#E1E7EC"/>
</svg>
