<svg width="52" height="50" viewBox="0 0 52 50" fill="none" xmlns="http://www.w3.org/2000/svg">
<path d="M17.1593 40.2599C17.1593 40.4667 16.9214 40.6321 16.6215 40.6321C16.2801 40.6631 16.0422 40.4977 16.0422 40.2599C16.0422 40.0531 16.2801 39.8877 16.5801 39.8877C16.8904 39.8567 17.1593 40.0221 17.1593 40.2599ZM13.9426 39.7947C13.8702 40.0014 14.077 40.2392 14.3873 40.3013C14.6563 40.4047 14.9666 40.3013 15.0286 40.0945C15.0907 39.8877 14.8942 39.6499 14.5839 39.5569C14.3149 39.4845 14.015 39.5879 13.9426 39.7947ZM18.5143 39.6189C18.2143 39.6913 18.0074 39.8877 18.0385 40.1255C18.0695 40.3323 18.3384 40.4667 18.6487 40.3943C18.9487 40.322 19.1555 40.1255 19.1245 39.9187C19.0935 39.7223 18.8142 39.5879 18.5143 39.6189ZM25.3201 0C10.9741 0 0 10.8869 0 25.2271C0 36.693 7.21953 46.5047 17.5317 49.9579C18.8556 50.1957 19.321 49.3789 19.321 48.7069C19.321 48.0658 19.29 44.5299 19.29 42.3587C19.29 42.3587 12.0498 43.9096 10.5293 39.2777C10.5293 39.2777 9.35022 36.2691 7.65394 35.4937C7.65394 35.4937 5.28536 33.8704 7.81943 33.9015C7.81943 33.9015 10.3949 34.1082 11.8119 36.5689C14.077 40.5598 17.873 39.4121 19.3521 38.7298C19.59 37.0755 20.2623 35.9279 21.007 35.2455C15.2251 34.6045 9.39159 33.7671 9.39159 23.821C9.39159 20.9778 10.1777 19.551 11.8326 17.7313C11.5637 17.0593 10.6845 14.2884 12.1015 10.7112C14.2632 10.0391 19.2383 13.5027 19.2383 13.5027C21.3069 12.9237 23.5307 12.6239 25.7338 12.6239C27.9369 12.6239 30.1607 12.9237 32.2293 13.5027C32.2293 13.5027 37.2044 10.0288 39.3661 10.7112C40.7831 14.2988 39.9039 17.0593 39.635 17.7313C41.2899 19.5613 42.3035 20.9881 42.3035 23.821C42.3035 33.7981 36.2114 34.5942 30.4296 35.2455C31.3812 36.0623 32.1879 37.6131 32.1879 40.0428C32.1879 43.527 32.1569 47.8384 32.1569 48.6862C32.1569 49.3582 32.6327 50.175 33.9463 49.9372C44.2894 46.5047 51.3021 36.693 51.3021 25.2271C51.3021 10.8869 39.666 0 25.3201 0ZM10.0536 35.6591C9.91909 35.7625 9.95012 36.0003 10.126 36.1967C10.2914 36.3621 10.5293 36.4345 10.6638 36.3001C10.7983 36.1967 10.7672 35.9589 10.5914 35.7625C10.4259 35.5971 10.188 35.5247 10.0536 35.6591ZM8.93649 34.8216C8.86409 34.956 8.96752 35.1215 9.17439 35.2249C9.33988 35.3282 9.54674 35.2972 9.61914 35.1525C9.69154 35.0181 9.58811 34.8526 9.38125 34.7493C9.17439 34.6872 9.00889 34.7182 8.93649 34.8216ZM12.2877 38.5023C12.1222 38.6367 12.1842 38.9469 12.4221 39.1433C12.66 39.3811 12.96 39.4121 13.0944 39.2467C13.2289 39.1123 13.1668 38.8021 12.96 38.6057C12.7324 38.3679 12.4221 38.3369 12.2877 38.5023ZM11.1086 36.9825C10.9431 37.0859 10.9431 37.3547 11.1086 37.5925C11.274 37.8303 11.5533 37.9337 11.6878 37.8303C11.8533 37.6959 11.8533 37.427 11.6878 37.1893C11.543 36.9515 11.274 36.8481 11.1086 36.9825Z" fill="black"/>
</svg>
