<svg width="78" height="30" viewBox="0 0 78 30" fill="none" xmlns="http://www.w3.org/2000/svg">
<path d="M5.88653 8.8236C5.73462 8.8236 5.69664 8.74765 5.7726 8.63372L6.57011 7.60834C6.64607 7.49441 6.83595 7.41846 6.98786 7.41846H20.5456C20.6975 7.41846 20.7355 7.53239 20.6596 7.64632L20.014 8.63372C19.938 8.74765 19.7481 8.86158 19.6342 8.86158L5.88653 8.8236Z" fill="#E1E7EC"/>
<path d="M0.151908 12.3177C3.16905e-07 12.3177 -0.0379771 12.2418 0.0379769 12.1279L0.835493 11.1025C0.911447 10.9886 1.10133 10.9126 1.25324 10.9126H18.5707C18.7226 10.9126 18.7986 11.0265 18.7606 11.1405L18.4568 12.0519C18.4188 12.2038 18.2669 12.2798 18.115 12.2798L0.151908 12.3177Z" fill="#E1E7EC"/>
<path d="M9.34234 15.8114C9.19043 15.8114 9.15245 15.6975 9.22841 15.5835L9.76008 14.6341C9.83604 14.5202 9.98795 14.4062 10.1399 14.4062H17.7352C17.8872 14.4062 17.9631 14.5202 17.9631 14.6721L17.8872 15.5835C17.8872 15.7354 17.7352 15.8494 17.6213 15.8494L9.34234 15.8114Z" fill="#E1E7EC"/>
<path d="M48.7624 8.14011C46.3699 8.74774 44.7369 9.20346 42.3823 9.81109C41.8127 9.963 41.7747 10.001 41.281 9.43132C40.7113 8.78571 40.2936 8.36797 39.4961 7.9882C37.1035 6.81091 34.7869 7.15271 32.6222 8.55785C30.0398 10.2288 28.7106 12.6973 28.7486 15.7735C28.7866 18.8116 30.8753 21.3181 33.8755 21.7359C36.4579 22.0777 38.6226 21.1662 40.3315 19.2294C40.6733 18.8116 40.9772 18.3559 41.3569 17.8242C39.9898 17.8242 38.2808 17.8242 34.0274 17.8242C33.2299 17.8242 33.04 17.3305 33.3058 16.6849C33.7995 15.5076 34.711 13.5328 35.2426 12.5454C35.3566 12.3176 35.6224 11.9378 36.1921 11.9378C38.1289 11.9378 45.2686 11.9378 50.0157 11.9378C49.9397 12.9632 49.9397 13.9886 49.7878 15.0139C49.3701 17.7483 48.3447 20.2548 46.6737 22.4574C43.9394 26.0652 40.3695 28.3059 35.8503 28.9135C32.1285 29.4072 28.6726 28.6856 25.6345 26.407C22.8242 24.2803 21.2291 21.47 20.8114 17.9761C20.3177 13.8367 21.5329 10.1149 24.0394 6.84889C26.7358 3.31703 30.3056 1.07639 34.673 0.278875C38.2428 -0.366734 41.6607 0.0510137 44.7369 2.13975C46.7497 3.46894 48.1928 5.29183 49.1422 7.4945C49.3701 7.83629 49.2182 8.02618 48.7624 8.14011Z" fill="#E1E7EC"/>
<path d="M61.3328 29.1413C57.8769 29.0653 54.7248 28.0779 52.0665 25.7993C49.8258 23.8625 48.4207 21.394 47.9649 18.4697C47.2814 14.1783 48.4586 10.3807 51.0411 7.0007C53.8134 3.35491 57.1554 1.45606 61.6746 0.658547C65.5483 -0.0250385 69.1941 0.35473 72.4981 2.59537C75.4982 4.64613 77.3591 7.41845 77.8528 11.0642C78.4984 16.1911 77.0173 20.3686 73.4855 23.9384C70.979 26.4829 67.9028 28.0779 64.371 28.7995C63.3456 28.9894 62.3202 29.0273 61.3328 29.1413ZM70.3714 13.7986C70.3334 13.3049 70.3334 12.9251 70.2574 12.5453C69.5738 8.78562 66.1179 6.65891 62.5101 7.4944C58.9783 8.29192 56.6996 10.5326 55.8642 14.1024C55.1806 17.0646 56.6237 20.0648 59.358 21.28C61.4468 22.1915 63.5355 22.0776 65.5483 21.0522C68.5485 19.4951 70.1815 17.0646 70.3714 13.7986Z" fill="#E1E7EC"/>
</svg>
