<svg width="45" height="44" viewBox="0 0 45 44" fill="none" xmlns="http://www.w3.org/2000/svg">
<path d="M22.5048 11.263C16.3904 11.263 11.4586 16.1939 11.4586 22.3072C11.4586 28.4204 16.3904 33.3514 22.5048 33.3514C28.6192 33.3514 33.551 28.4204 33.551 22.3072C33.551 16.1939 28.6192 11.263 22.5048 11.263ZM22.5048 29.4874C18.5535 29.4874 15.3233 26.2673 15.3233 22.3072C15.3233 18.347 18.5439 15.127 22.5048 15.127C26.4657 15.127 29.6863 18.347 29.6863 22.3072C29.6863 26.2673 26.4561 29.4874 22.5048 29.4874V29.4874ZM36.5794 10.8112C36.5794 12.2434 35.4257 13.3872 34.0029 13.3872C32.5704 13.3872 31.4264 12.2338 31.4264 10.8112C31.4264 9.38862 32.58 8.23518 34.0029 8.23518C35.4257 8.23518 36.5794 9.38862 36.5794 10.8112ZM43.8955 13.4257C43.732 9.97495 42.9437 6.91833 40.4153 4.39998C37.8965 1.88163 34.8393 1.09345 31.3879 0.920432C27.8308 0.71858 17.1692 0.71858 13.6121 0.920432C10.1703 1.08384 7.11315 1.87202 4.58473 4.39037C2.05631 6.90872 1.27759 9.96534 1.10454 13.4161C0.902653 16.9725 0.902653 27.6322 1.10454 31.1887C1.26798 34.6394 2.05631 37.696 4.58473 40.2144C7.11315 42.7327 10.1607 43.5209 13.6121 43.6939C17.1692 43.8958 27.8308 43.8958 31.3879 43.6939C34.8393 43.5305 37.8965 42.7423 40.4153 40.2144C42.9341 37.696 43.7224 34.6394 43.8955 31.1887C44.0973 27.6322 44.0973 16.9821 43.8955 13.4257V13.4257ZM39.3001 35.0046C38.5502 36.8886 37.0985 38.34 35.2046 39.0994C32.3685 40.224 25.6389 39.9645 22.5048 39.9645C19.3707 39.9645 12.6315 40.2144 9.80501 39.0994C7.92071 38.3496 6.46903 36.8982 5.70954 35.0046C4.58473 32.1691 4.8443 25.4407 4.8443 22.3072C4.8443 19.1737 4.59434 12.4356 5.70954 9.6097C6.45942 7.72574 7.91109 6.27433 9.80501 5.51498C12.6411 4.39037 19.3707 4.6499 22.5048 4.6499C25.6389 4.6499 32.3782 4.39998 35.2046 5.51498C37.0889 6.26471 38.5406 7.71613 39.3001 9.6097C40.4249 12.4452 40.1653 19.1737 40.1653 22.3072C40.1653 25.4407 40.4249 32.1787 39.3001 35.0046Z" fill="black"/>
</svg>
