<svg width="29" height="29" viewBox="0 0 29 29" fill="none" xmlns="http://www.w3.org/2000/svg">
<path d="M6.80036 28.0438H1.09902V9.68389H6.80036V28.0438ZM3.94662 7.17942C2.12351 7.17942 0.644775 5.66938 0.644775 3.84628C0.644775 2.97057 0.992647 2.13074 1.61186 1.51152C2.23108 0.892305 3.07091 0.544434 3.94662 0.544434C4.82232 0.544434 5.66216 0.892305 6.28137 1.51152C6.90059 2.13074 7.24846 2.97057 7.24846 3.84628C7.24846 5.66938 5.76911 7.17942 3.94662 7.17942ZM28.1386 28.0438H22.4496V19.1063C22.4496 16.9763 22.4066 14.2447 19.4853 14.2447C16.5211 14.2447 16.0669 16.5589 16.0669 18.9529V28.0438H10.3717V9.68389H15.8398V12.1884H15.9196C16.6807 10.7458 18.54 9.22351 21.314 9.22351C27.0841 9.22351 28.1448 13.0232 28.1448 17.9584V28.0438H28.1386Z" fill="#E1E7EC"/>
</svg>
