<svg width="46" height="46" viewBox="0 0 46 46" fill="none" xmlns="http://www.w3.org/2000/svg">
<path d="M10.2966 46H0.759821V15.2882H10.2966V46ZM5.52308 11.0988C2.47353 11.0988 0 8.57282 0 5.5232C2.18274e-08 4.05836 0.581894 2.65351 1.61767 1.61771C2.65345 0.581907 4.05827 0 5.52308 0C6.98789 0 8.39271 0.581907 9.42849 1.61771C10.4643 2.65351 11.0462 4.05836 11.0462 5.5232C11.0462 8.57282 8.57161 11.0988 5.52308 11.0988ZM45.9897 46H36.4735V31.0497C36.4735 27.4866 36.4016 22.9173 31.5151 22.9173C26.5568 22.9173 25.797 26.7884 25.797 30.793V46H16.2704V15.2882H25.4171V19.4775H25.5505C26.8238 17.0645 29.9339 14.518 34.5739 14.518C44.2257 14.518 46 20.874 46 29.1295V46H45.9897Z" fill="black"/>
</svg>
