<svg width="137" height="30" viewBox="0 0 137 30" fill="none" xmlns="http://www.w3.org/2000/svg">
<path d="M5.74216 23.6254C4.35915 23.5294 3.23546 23.3469 2.37108 23.078C1.52591 22.7899 0.892031 22.5306 0.469446 22.3001L1.44908 19.5629C2.06375 19.8702 2.80327 20.1487 3.66765 20.3984C4.55124 20.6481 5.55008 20.773 6.66417 20.773C7.98955 20.773 8.90195 20.5809 9.40137 20.1967C9.92 19.7934 10.1793 19.2651 10.1793 18.612C10.1793 18.1702 10.0737 17.7861 9.86237 17.4595C9.65108 17.133 9.35335 16.8449 8.96918 16.5951C8.58501 16.3454 8.12401 16.1149 7.58617 15.9036C7.06754 15.6924 6.49129 15.4715 5.85741 15.241C5.26195 15.0297 4.66649 14.7896 4.07103 14.5206C3.49477 14.2517 2.96654 13.9252 2.48633 13.541C2.02533 13.1376 1.65076 12.6574 1.36264 12.1004C1.07451 11.5433 0.930448 10.8614 0.930448 10.0547C0.930448 8.72929 1.32422 7.6056 2.11177 6.68359C2.89931 5.74238 4.10944 5.13731 5.74216 4.8684V1.64138H8.73868V4.75314C9.66068 4.82998 10.4866 4.96444 11.2166 5.15652C11.9465 5.3294 12.5227 5.50227 12.9453 5.67515L12.225 8.5276C11.668 8.31631 11.0053 8.11462 10.2369 7.92254C9.48781 7.73045 8.62343 7.63441 7.6438 7.63441C6.60654 7.63441 5.8286 7.82649 5.30997 8.21066C4.79134 8.57562 4.53203 9.08465 4.53203 9.73773C4.53203 10.1219 4.60886 10.4484 4.76253 10.7174C4.9162 10.9671 5.1467 11.1976 5.45404 11.4089C5.76137 11.601 6.13593 11.793 6.57773 11.9851C7.01952 12.158 7.51894 12.3405 8.07599 12.5326C8.86353 12.8399 9.60306 13.1664 10.2946 13.5122C11.0053 13.8387 11.6199 14.2325 12.1386 14.6935C12.6572 15.1353 13.0606 15.6635 13.3487 16.2782C13.656 16.8929 13.8097 17.6228 13.8097 18.468C13.8097 19.7357 13.4159 20.8306 12.6284 21.7526C11.8408 22.6746 10.5443 23.2701 8.73868 23.539V27.1406H5.74216V23.6254ZM43.0125 27.4863H38.9499V0.719373H43.0125V27.4863Z" fill="#10416E"/>
<path d="M25.7773 21.5509C26.853 21.5509 27.6693 21.4933 28.2264 21.378V17.5172C28.0343 17.4595 27.7558 17.4019 27.3908 17.3443C27.0259 17.2867 26.6225 17.2578 26.1807 17.2578C25.7965 17.2578 25.4027 17.2867 24.9994 17.3443C24.6152 17.4019 24.2598 17.5075 23.9333 17.6612C23.626 17.8149 23.3763 18.0358 23.1842 18.3239C22.9921 18.5928 22.896 18.9386 22.896 19.3612C22.896 20.1871 23.1554 20.7634 23.674 21.0899C24.1926 21.3973 24.8937 21.5509 25.7773 21.5509ZM25.4892 8.55642C26.6417 8.55642 27.6117 8.70048 28.3993 8.98861C29.1868 9.27673 29.8111 9.68011 30.2721 10.1987C30.7523 10.7174 31.0884 11.3512 31.2805 12.1004C31.4918 12.8303 31.5975 13.637 31.5975 14.5206V23.6542C31.0596 23.7695 30.2433 23.904 29.1484 24.0576C28.0727 24.2305 26.853 24.3169 25.4892 24.3169C24.5864 24.3169 23.7604 24.2305 23.0113 24.0576C22.2622 23.8847 21.6187 23.6062 21.0809 23.2221C20.5622 22.8379 20.1492 22.3385 19.8419 21.7238C19.5538 21.1091 19.4097 20.3504 19.4097 19.4476C19.4097 18.5832 19.573 17.8533 19.8995 17.2578C20.2453 16.6624 20.7063 16.1822 21.2825 15.8172C21.8588 15.433 22.5215 15.1641 23.2706 15.0105C24.0389 14.8376 24.8361 14.7511 25.6621 14.7511C26.0462 14.7511 26.4496 14.7799 26.8722 14.8376C27.2948 14.876 27.7462 14.9528 28.2264 15.0681V14.4918C28.2264 14.0884 28.1784 13.7043 28.0823 13.3393C27.9863 12.9744 27.8134 12.6574 27.5637 12.3885C27.3332 12.1004 27.0163 11.8795 26.6129 11.7258C26.2287 11.5721 25.7389 11.4953 25.1434 11.4953C24.3367 11.4953 23.5972 11.5529 22.9249 11.6682C22.2526 11.7834 21.7051 11.9179 21.2825 12.0716L20.8503 9.24792C21.2921 9.09425 21.9356 8.94058 22.7808 8.78692C23.626 8.63325 24.5288 8.55642 25.4892 8.55642ZM48.5904 29.3592C48.3407 29.3592 47.9949 29.3303 47.5532 29.2727C47.0922 29.2343 46.6888 29.1479 46.343 29.0134L46.804 26.1609C47.2266 26.2954 47.7356 26.3626 48.3311 26.3626C49.1379 26.3626 49.7045 26.1225 50.031 25.6423C50.3576 25.1813 50.5209 24.4802 50.5209 23.539V8.93098H54.0072V23.5966C54.0072 25.5559 53.5366 27.0061 52.5954 27.9473C51.6734 28.8885 50.3384 29.3592 48.5904 29.3592ZM54.3818 4.52264C54.3818 5.17573 54.1705 5.69436 53.7479 6.07853C53.3253 6.46269 52.8259 6.65478 52.2496 6.65478C51.6542 6.65478 51.1451 6.46269 50.7225 6.07853C50.3 5.69436 50.0887 5.17573 50.0887 4.52264C50.0887 3.85035 50.3 3.32212 50.7225 2.93795C51.1451 2.55378 51.6542 2.36169 52.2496 2.36169C52.8259 2.36169 53.3253 2.55378 53.7479 2.93795C54.1705 3.32212 54.3818 3.85035 54.3818 4.52264ZM65.1978 21.5509C66.2734 21.5509 67.0898 21.4933 67.6468 21.378V17.5172C67.4547 17.4595 67.1762 17.4019 66.8113 17.3443C66.4463 17.2867 66.0429 17.2578 65.6011 17.2578C65.217 17.2578 64.8232 17.2867 64.4198 17.3443C64.0356 17.4019 63.6803 17.5075 63.3537 17.6612C63.0464 17.8149 62.7967 18.0358 62.6046 18.3239C62.4125 18.5928 62.3165 18.9386 62.3165 19.3612C62.3165 20.1871 62.5758 20.7634 63.0944 21.0899C63.6131 21.3973 64.3142 21.5509 65.1978 21.5509ZM64.9096 8.55642C66.0621 8.55642 67.0322 8.70048 67.8197 8.98861C68.6073 9.27673 69.2315 9.68011 69.6925 10.1987C70.1727 10.7174 70.5089 11.3512 70.701 12.1004C70.9123 12.8303 71.0179 13.637 71.0179 14.5206V23.6542C70.4801 23.7695 69.6637 23.904 68.5688 24.0576C67.4932 24.2305 66.2734 24.3169 64.9096 24.3169C64.0068 24.3169 63.1809 24.2305 62.4317 24.0576C61.6826 23.8847 61.0391 23.6062 60.5013 23.2221C59.9827 22.8379 59.5697 22.3385 59.2623 21.7238C58.9742 21.1091 58.8302 20.3504 58.8302 19.4476C58.8302 18.5832 58.9934 17.8533 59.32 17.2578C59.6657 16.6624 60.1267 16.1822 60.703 15.8172C61.2792 15.433 61.9419 15.1641 62.6911 15.0105C63.4594 14.8376 64.2565 14.7511 65.0825 14.7511C65.4667 14.7511 65.87 14.7799 66.2926 14.8376C66.7152 14.876 67.1666 14.9528 67.6468 15.0681V14.4918C67.6468 14.0884 67.5988 13.7043 67.5028 13.3393C67.4067 12.9744 67.2338 12.6574 66.9841 12.3885C66.7536 12.1004 66.4367 11.8795 66.0333 11.7258C65.6492 11.5721 65.1593 11.4953 64.5639 11.4953C63.7571 11.4953 63.0176 11.5529 62.3453 11.6682C61.673 11.7834 61.1256 11.9179 60.703 12.0716L60.2708 9.24792C60.7126 9.09425 61.3561 8.94058 62.2012 8.78692C63.0464 8.63325 63.9492 8.55642 64.9096 8.55642ZM86.726 16.4223C86.726 14.9432 86.4283 13.7715 85.8328 12.9071C85.2565 12.0427 84.3345 11.6106 83.0668 11.6106C82.4905 11.6106 81.9431 11.697 81.4245 11.8699C80.925 12.0427 80.5217 12.2348 80.2143 12.4461V21.1187C80.464 21.1764 80.781 21.234 81.1651 21.2916C81.5685 21.33 82.0487 21.3492 82.6058 21.3492C83.8927 21.3492 84.9012 20.917 85.6311 20.0527C86.361 19.1691 86.726 17.9589 86.726 16.4223ZM90.2988 16.4799C90.2988 17.69 90.1163 18.7849 89.7513 19.7645C89.4056 20.725 88.8965 21.5509 88.2242 22.2424C87.5712 22.9339 86.774 23.4622 85.8328 23.8271C84.8916 24.1921 83.8255 24.3746 82.6346 24.3746C81.4821 24.3746 80.3776 24.2881 79.3211 24.1153C78.2839 23.9424 77.4195 23.7503 76.728 23.539V2.21763L80.2143 1.64138V9.44961C80.6177 9.23832 81.1075 9.04623 81.6838 8.87335C82.2792 8.70048 82.9323 8.61404 83.643 8.61404C84.6995 8.61404 85.6407 8.80613 86.4667 9.19029C87.3118 9.55525 88.013 10.0835 88.57 10.775C89.127 11.4665 89.5496 12.3021 89.8378 13.2817C90.1451 14.2421 90.2988 15.3082 90.2988 16.4799ZM103.89 16.4223C103.89 14.9432 103.592 13.7715 102.997 12.9071C102.42 12.0427 101.498 11.6106 100.231 11.6106C99.6543 11.6106 99.1069 11.697 98.5882 11.8699C98.0888 12.0427 97.6855 12.2348 97.3781 12.4461V21.1187C97.6278 21.1764 97.9448 21.234 98.3289 21.2916C98.7323 21.33 99.2125 21.3492 99.7696 21.3492C101.057 21.3492 102.065 20.917 102.795 20.0527C103.525 19.1691 103.89 17.9589 103.89 16.4223ZM107.463 16.4799C107.463 17.69 107.28 18.7849 106.915 19.7645C106.569 20.725 106.06 21.5509 105.388 22.2424C104.735 22.9339 103.938 23.4622 102.997 23.8271C102.055 24.1921 100.989 24.3746 99.7984 24.3746C98.6459 24.3746 97.5414 24.2881 96.4849 24.1153C95.4477 23.9424 94.5833 23.7503 93.8918 23.539V2.21763L97.3781 1.64138V9.44961C97.7815 9.23832 98.2713 9.04623 98.8476 8.87335C99.443 8.70048 100.096 8.61404 100.807 8.61404C101.863 8.61404 102.805 8.80613 103.63 9.19029C104.476 9.55525 105.177 10.0835 105.734 10.775C106.291 11.4665 106.713 12.3021 107.002 13.2817C107.309 14.2421 107.463 15.3082 107.463 16.4799ZM116.933 21.5509C118.009 21.5509 118.825 21.4933 119.382 21.378V17.5172C119.19 17.4595 118.912 17.4019 118.547 17.3443C118.182 17.2867 117.779 17.2578 117.337 17.2578C116.953 17.2578 116.559 17.2867 116.155 17.3443C115.771 17.4019 115.416 17.5075 115.089 17.6612C114.782 17.8149 114.532 18.0358 114.34 18.3239C114.148 18.5928 114.052 18.9386 114.052 19.3612C114.052 20.1871 114.311 20.7634 114.83 21.0899C115.349 21.3973 116.05 21.5509 116.933 21.5509ZM116.645 8.55642C117.798 8.55642 118.768 8.70048 119.555 8.98861C120.343 9.27673 120.967 9.68011 121.428 10.1987C121.908 10.7174 122.244 11.3512 122.437 12.1004C122.648 12.8303 122.754 13.637 122.754 14.5206V23.6542C122.216 23.7695 121.399 23.904 120.304 24.0576C119.229 24.2305 118.009 24.3169 116.645 24.3169C115.742 24.3169 114.916 24.2305 114.167 24.0576C113.418 23.8847 112.775 23.6062 112.237 23.2221C111.718 22.8379 111.305 22.3385 110.998 21.7238C110.71 21.1091 110.566 20.3504 110.566 19.4476C110.566 18.5832 110.729 17.8533 111.056 17.2578C111.401 16.6624 111.862 16.1822 112.439 15.8172C113.015 15.433 113.678 15.1641 114.427 15.0105C115.195 14.8376 115.992 14.7511 116.818 14.7511C117.202 14.7511 117.606 14.7799 118.028 14.8376C118.451 14.876 118.902 14.9528 119.382 15.0681V14.4918C119.382 14.0884 119.334 13.7043 119.238 13.3393C119.142 12.9744 118.969 12.6574 118.72 12.3885C118.489 12.1004 118.172 11.8795 117.769 11.7258C117.385 11.5721 116.895 11.4953 116.299 11.4953C115.493 11.4953 114.753 11.5529 114.081 11.6682C113.409 11.7834 112.861 11.9179 112.439 12.0716L112.006 9.24792C112.448 9.09425 113.092 8.94058 113.937 8.78692C114.782 8.63325 115.685 8.55642 116.645 8.55642ZM136.185 12.0716C135.897 11.9755 135.494 11.8795 134.975 11.7834C134.476 11.6682 133.89 11.6106 133.218 11.6106C132.834 11.6106 132.421 11.649 131.979 11.7258C131.556 11.8026 131.258 11.8699 131.086 11.9275V24H127.599V9.6513C128.272 9.40159 129.107 9.17109 130.106 8.95979C131.124 8.72929 132.248 8.61404 133.477 8.61404C133.708 8.61404 133.976 8.63325 134.284 8.67167C134.591 8.69087 134.898 8.72929 135.206 8.78692C135.513 8.82533 135.811 8.88296 136.099 8.95979C136.387 9.01742 136.618 9.07504 136.79 9.13267L136.185 12.0716Z" fill="#AEBECC"/>
</svg>
