<svg width="579" height="626" viewBox="0 0 579 626" fill="none" xmlns="http://www.w3.org/2000/svg">
<path fill-rule="evenodd" clip-rule="evenodd" d="M324.805 0.0437322C393.525 -1.36796 460.444 31.5338 508.918 79.0373C553.363 122.593 567.142 185.638 576.226 246.431C584.021 298.598 574.707 349.801 556.812 399.549C539.312 448.2 516.785 495.986 475.062 527.666C432.434 560.033 377.307 563.255 324.805 575.71C252.292 592.911 174.734 650.475 110.006 614.264C46.3378 578.645 58.3923 485.557 39.8795 416.311C22.7235 352.14 -14.4443 288.336 5.95737 225.074C26.4247 161.608 90.9657 125.502 146.245 86.4876C201.425 47.5443 256.698 1.44287 324.805 0.0437322Z" fill="url(#paint0_linear_467_26)"/>
<defs>
<linearGradient id="paint0_linear_467_26" x1="-10.5" y1="-3.34578e-06" x2="625.802" y2="429.076" gradientUnits="userSpaceOnUse">
<stop stop-color="#913602"/>
<stop offset="1" stop-color="#0E3775"/>
</linearGradient>
</defs>
</svg>
