<svg width="40" height="36" viewBox="0 0 40 36" fill="none" xmlns="http://www.w3.org/2000/svg">
<path d="M39.1111 18.194C39.1111 15.6979 37.1586 13.701 34.718 13.9506C33.7417 13.9506 32.5214 14.4499 31.7892 15.1987C28.3723 12.9522 24.4673 11.4546 20.3183 11.4546L22.2708 1.96943L28.6164 3.46708C28.6164 5.21434 30.0808 6.46239 31.7892 6.46239C33.4977 6.46239 34.718 4.96473 34.718 3.21747C34.718 1.47021 33.2536 0.222168 31.5452 0.222168C30.3248 0.222168 29.3486 0.970994 28.8605 1.96943L22.0267 0.222168H21.5386C21.2945 0.222168 21.2945 0.471776 21.2945 0.721385L18.8539 11.4546C14.7048 11.4546 10.7998 12.7026 7.38291 15.1987C5.67447 13.4514 2.98977 13.4514 1.28133 15.1987C-0.42711 16.946 -0.42711 19.6916 1.28133 21.4389C1.52539 21.6885 2.01352 22.1877 2.50165 22.1877V23.4358C2.50165 30.1752 10.0676 35.6666 19.5861 35.6666C29.1045 35.6666 36.6705 30.1752 36.6705 23.4358V22.1877C38.1349 21.4389 39.1111 19.9413 39.1111 18.194V18.194ZM9.82354 21.4389C9.82354 19.6916 11.2879 18.4436 12.7523 18.4436C14.4607 18.4436 15.6811 19.9413 15.6811 21.4389C15.6811 22.9366 14.2167 24.4342 12.7523 24.4342C11.0439 24.4342 9.82354 23.1862 9.82354 21.4389ZM26.908 29.676C24.7114 31.1736 22.2708 32.1721 19.5861 31.9225C16.9014 31.9225 14.4607 31.1736 12.2642 29.676C12.0201 29.4264 12.0201 28.9272 12.2642 28.428C12.5082 28.1783 12.9964 28.1783 13.2404 28.428C14.9489 29.676 17.1454 30.4248 19.342 30.1752C21.5386 30.4248 23.7351 29.676 25.4436 28.428C25.6876 28.1783 26.1758 28.1783 26.6639 28.428C27.152 28.6776 27.152 29.1768 26.908 29.676ZM26.1758 24.4342C24.4673 24.4342 23.247 22.9366 23.247 21.4389C23.247 19.9413 24.7114 18.4436 26.1758 18.4436C27.8842 18.4436 29.1045 19.9413 29.1045 21.4389C29.3486 23.1862 27.8842 24.4342 26.1758 24.4342Z" fill="#E1E7EC"/>
</svg>
