<svg width="679" height="507" viewBox="0 0 679 507" fill="none" xmlns="http://www.w3.org/2000/svg">
<g clip-path="url(#clip0_433_89)">
<path d="M652.428 424.875C601.29 506.68 493.494 531.555 411.654 480.439L159.253 322.778C77.413 271.686 52.5196 163.937 103.657 82.1325C154.795 0.32784 262.598 -24.5546 344.439 26.5294L596.831 184.191C678.672 235.322 703.565 343.071 652.428 424.875Z" fill="#274D76"/>
<path d="M659.19 370.685C653.904 376.453 639.177 360.772 627.472 365.151C615.767 369.53 616.704 341.174 627.472 346.021C638.24 350.868 652.014 334.025 659.19 340.019C666.366 346.013 651.077 357.315 659.19 370.685Z" fill="#EC8C92"/>
<path d="M570.611 348.714C570.611 348.714 582.636 324.557 589.578 326.571C592.514 327.422 589.648 330.348 592.638 330.981C597.324 331.956 600.15 319.554 607.568 320.577C613.401 321.357 608.427 329.88 613.143 330.949C616.064 331.613 622.154 327.289 623.849 329.755C626.309 333.346 616.532 344.499 616.532 344.499L570.611 348.714Z" fill="#EC8C92"/>
<path d="M603.125 383.165C584.838 383.165 556.657 365.713 556.759 359.976C556.813 356.854 560.265 353.319 564.739 349.994C574.99 342.439 587.406 338.391 600.142 338.45H614.198C616.697 338.448 619.172 338.938 621.482 339.893C623.791 340.847 625.89 342.248 627.658 344.013C629.426 345.779 630.828 347.876 631.785 350.184C632.742 352.491 633.235 354.965 633.235 357.463C633.235 373.854 619.484 383.165 603.125 383.165Z" fill="#93B4F6"/>
<path d="M591.46 377.038C591.46 377.038 619.734 385.936 616.376 389.487C613.019 393.039 586.915 390.283 591.46 377.038Z" fill="#EC8C92"/>
<path d="M580.668 363.621C579.417 363.623 578.193 363.253 577.152 362.56C576.111 361.866 575.299 360.879 574.819 359.724C574.339 358.569 574.213 357.298 574.456 356.071C574.699 354.844 575.301 353.717 576.185 352.832C577.069 351.947 578.196 351.344 579.424 351.099C580.651 350.855 581.923 350.979 583.079 351.458C584.235 351.936 585.223 352.746 585.919 353.786C586.614 354.826 586.985 356.049 586.985 357.299C586.985 358.975 586.32 360.582 585.135 361.767C583.951 362.952 582.344 363.619 580.668 363.621ZM580.668 352.538C579.726 352.537 578.804 352.815 578.02 353.337C577.235 353.859 576.624 354.602 576.262 355.472C575.9 356.342 575.805 357.299 575.988 358.223C576.171 359.147 576.624 359.996 577.289 360.663C577.955 361.33 578.804 361.784 579.728 361.968C580.652 362.153 581.61 362.059 582.481 361.699C583.352 361.339 584.096 360.728 584.62 359.945C585.144 359.162 585.423 358.241 585.423 357.299C585.421 356.039 584.92 354.83 584.029 353.938C583.138 353.046 581.929 352.542 580.668 352.538Z" fill="white"/>
<path d="M594.177 375.875C594.03 375.874 593.886 375.832 593.762 375.753C593.638 375.674 593.539 375.561 593.476 375.428C593.413 375.295 593.389 375.147 593.407 375.001C593.424 374.855 593.483 374.717 593.576 374.603C596.261 371.326 597.894 367.316 598.26 363.096C598.627 358.876 597.71 354.644 595.629 350.954C595.578 350.865 595.545 350.766 595.531 350.664C595.518 350.562 595.525 350.459 595.552 350.359C595.579 350.26 595.625 350.167 595.688 350.085C595.751 350.004 595.829 349.936 595.918 349.884C596.007 349.833 596.106 349.8 596.208 349.787C596.31 349.774 596.413 349.781 596.513 349.807C596.612 349.834 596.705 349.88 596.787 349.943C596.868 350.006 596.937 350.084 596.988 350.173C599.223 354.137 600.209 358.683 599.816 363.216C599.424 367.749 597.67 372.058 594.786 375.579C594.713 375.671 594.621 375.745 594.515 375.796C594.41 375.848 594.294 375.875 594.177 375.875Z" fill="black"/>
<path d="M586.197 376.89C586.083 376.889 585.971 376.863 585.869 376.815C585.766 376.766 585.676 376.696 585.603 376.609C574.843 363.723 557.001 361.608 556.821 361.584C556.719 361.573 556.619 361.542 556.529 361.492C556.439 361.442 556.359 361.375 556.294 361.295C556.164 361.132 556.104 360.925 556.126 360.718C556.149 360.511 556.253 360.321 556.416 360.191C556.578 360.061 556.786 360 556.993 360.023C557.774 360.109 575.64 362.24 586.798 375.633C586.928 375.792 586.991 375.996 586.972 376.2C586.953 376.405 586.854 376.594 586.696 376.726C586.554 376.837 586.377 376.895 586.197 376.89Z" fill="black"/>
<path d="M320.646 457.836C316.953 461.863 306.654 450.905 298.47 453.934C290.287 456.962 290.943 437.168 298.47 440.556C305.998 443.943 315.649 432.173 320.646 436.364C325.644 440.556 314.993 448.486 320.646 457.836Z" fill="#EC8C92"/>
<path d="M258.741 442.476C258.741 442.476 267.143 425.586 272.015 426.99C274.061 427.591 272.062 429.629 274.147 430.073C277.403 430.753 279.402 422.081 284.587 422.799C288.663 423.369 285.188 429.301 288.491 430.05C290.529 430.518 294.785 427.49 295.972 429.215C297.69 431.728 290.857 439.525 290.857 439.525L258.741 442.476Z" fill="#EC8C92"/>
<path d="M273.32 462.277C273.32 462.277 293.091 468.521 290.74 470.98C288.39 473.438 270.165 471.534 273.32 462.277Z" fill="#EC8C92"/>
<path d="M281.472 466.554C268.689 466.554 248.989 454.363 249.059 450.351C249.059 448.181 251.511 445.668 254.634 443.326C261.801 438.044 270.482 435.214 279.387 435.256H289.225C292.746 435.256 296.122 436.654 298.612 439.142C301.101 441.631 302.5 445.006 302.5 448.525C302.523 460.021 292.911 466.554 281.472 466.554Z" fill="#F2BDBA"/>
<path d="M265.769 452.451C264.842 452.451 263.936 452.176 263.166 451.661C262.395 451.147 261.795 450.415 261.44 449.56C261.086 448.704 260.993 447.762 261.174 446.854C261.354 445.945 261.801 445.111 262.456 444.456C263.111 443.801 263.946 443.355 264.855 443.174C265.763 442.994 266.705 443.086 267.561 443.441C268.418 443.795 269.149 444.396 269.664 445.166C270.179 445.936 270.454 446.841 270.454 447.767C270.454 449.009 269.96 450.201 269.081 451.079C268.203 451.957 267.011 452.451 265.769 452.451ZM265.769 444.7C265.151 444.7 264.547 444.883 264.033 445.226C263.52 445.569 263.119 446.057 262.883 446.627C262.647 447.198 262.585 447.826 262.705 448.431C262.826 449.037 263.123 449.593 263.56 450.03C263.997 450.466 264.553 450.764 265.159 450.884C265.765 451.005 266.393 450.943 266.964 450.706C267.535 450.47 268.022 450.07 268.366 449.557C268.709 449.043 268.892 448.44 268.892 447.822C268.892 447.412 268.811 447.006 268.654 446.627C268.497 446.249 268.267 445.904 267.977 445.615C267.687 445.325 267.343 445.095 266.964 444.938C266.585 444.781 266.179 444.7 265.769 444.7Z" fill="white"/>
<path d="M275.217 461.699C275.037 461.698 274.864 461.635 274.725 461.52C274.645 461.455 274.579 461.375 274.531 461.284C274.482 461.194 274.452 461.095 274.442 460.992C274.432 460.89 274.442 460.787 274.472 460.689C274.502 460.59 274.55 460.499 274.616 460.419C276.46 458.164 277.581 455.406 277.833 452.505C278.086 449.603 277.457 446.693 276.029 444.154C275.978 444.065 275.945 443.966 275.931 443.864C275.918 443.762 275.925 443.659 275.952 443.559C275.979 443.46 276.025 443.367 276.088 443.286C276.151 443.204 276.229 443.136 276.318 443.085C276.407 443.033 276.506 443 276.608 442.987C276.71 442.974 276.813 442.981 276.913 443.007C277.012 443.034 277.105 443.08 277.187 443.143C277.268 443.206 277.336 443.284 277.388 443.373C278.97 446.186 279.668 449.41 279.39 452.625C279.111 455.84 277.869 458.896 275.826 461.395C275.754 461.489 275.662 461.564 275.557 461.617C275.451 461.67 275.335 461.698 275.217 461.699Z" fill="black"/>
<path d="M269.642 462.402C269.527 462.402 269.414 462.377 269.31 462.328C269.206 462.28 269.114 462.209 269.041 462.121C261.576 453.184 249.199 451.717 249.074 451.701C248.87 451.678 248.683 451.574 248.554 451.413C248.425 451.253 248.365 451.047 248.387 450.843C248.398 450.741 248.429 450.642 248.478 450.552C248.527 450.462 248.593 450.382 248.673 450.317C248.752 450.253 248.844 450.205 248.943 450.176C249.041 450.147 249.144 450.137 249.246 450.148C249.785 450.21 262.38 451.709 270.243 461.122C270.309 461.201 270.358 461.292 270.389 461.39C270.419 461.488 270.43 461.591 270.421 461.693C270.411 461.795 270.382 461.895 270.334 461.986C270.286 462.076 270.221 462.157 270.142 462.222C270.001 462.339 269.824 462.402 269.642 462.402Z" fill="black"/>
<path d="M1.20255 281.629C4.40402 286.156 13.3213 273.824 20.4114 277.282C27.5014 280.74 26.9314 258.448 20.4114 262.257C13.8913 266.066 5.57529 252.837 1.20255 257.574C-3.17018 262.312 6.11407 271.124 1.20255 281.629Z" fill="#274D76"/>
<path d="M62.2492 261.055C62.2492 261.055 53.3944 237.984 48.272 239.904C46.1169 240.684 48.2252 243.51 46.0232 244.111C42.5953 245.047 40.487 233.183 35.0211 234.182C30.7342 234.963 34.3886 243.065 30.9138 244.087C28.7665 244.719 24.2766 240.583 23.0351 242.948C21.2235 246.374 28.4151 256.997 28.4151 256.997L62.2492 261.055Z" fill="#274D76"/>
<path d="M38.3005 293.961C51.7701 293.961 72.525 277.298 72.4547 271.818C72.4547 268.86 69.8701 265.457 66.5749 262.273C59.0554 255.014 49.8648 251.252 40.4947 251.252H30.1719C22.4337 251.252 16.1167 259.385 16.1167 269.414C16.1167 285.032 26.2677 293.961 38.3005 293.961Z" fill="#93B4F6"/>
<path d="M46.8897 288.115C46.8897 288.115 26.0646 296.607 28.5398 300.01C31.0151 303.413 50.2161 300.76 46.8897 288.115Z" fill="#274D76"/>
<path d="M54.8466 274.597C52.1683 274.597 49.9819 271.873 49.9819 268.525C49.9819 265.176 52.1683 262.452 54.8466 262.452C57.5249 262.452 59.7113 265.176 59.7113 268.525C59.7113 271.873 57.5015 274.597 54.8466 274.597ZM54.8466 264.013C53.0272 264.013 51.5436 266.035 51.5436 268.525C51.5436 271.014 53.0272 273.036 54.8466 273.036C56.666 273.036 58.1496 271.007 58.1496 268.525C58.1496 266.043 56.666 264.013 54.8466 264.013Z" fill="white"/>
<path d="M44.891 287.038C44.7583 287.039 44.6277 287.005 44.5116 286.941C44.3955 286.877 44.2976 286.784 44.2273 286.671C41.7312 282.572 40.4304 277.858 40.4714 273.059C40.4543 269.436 41.1798 265.847 42.6031 262.515C42.6404 262.416 42.6975 262.325 42.771 262.249C42.8444 262.172 42.9326 262.112 43.0303 262.07C43.1279 262.029 43.2329 262.008 43.339 262.009C43.445 262.01 43.5497 262.032 43.6468 262.074C43.744 262.117 43.8314 262.178 43.9039 262.256C43.9764 262.333 44.0323 262.424 44.0684 262.524C44.1044 262.624 44.1198 262.73 44.1136 262.835C44.1073 262.941 44.0796 263.045 44.0321 263.139C42.6955 266.275 42.0152 269.651 42.0331 273.059C41.9921 277.562 43.209 281.987 45.5469 285.836C45.6018 285.923 45.639 286.019 45.6566 286.12C45.6741 286.221 45.6716 286.325 45.6491 286.425C45.6266 286.525 45.5846 286.62 45.5255 286.703C45.4665 286.787 45.3915 286.859 45.3048 286.913C45.1814 286.993 45.0379 287.036 44.891 287.038Z" fill="black"/>
<path d="M50.7629 287.998C50.6138 287.994 50.4684 287.951 50.3412 287.873C50.2541 287.818 50.1789 287.746 50.1199 287.661C50.0609 287.576 50.0194 287.481 49.9976 287.38C49.9758 287.279 49.9742 287.175 49.993 287.073C50.0118 286.972 50.0505 286.875 50.107 286.788C52.6002 282.938 55.8438 279.628 59.6445 277.057C63.4451 274.487 67.7248 272.708 72.2283 271.826C72.4354 271.796 72.646 271.85 72.8136 271.975C72.9813 272.1 73.0924 272.287 73.1224 272.494C73.1524 272.701 73.099 272.911 72.9738 273.079C72.8486 273.246 72.6619 273.357 72.4548 273.387C68.1827 274.268 64.126 275.981 60.5165 278.429C56.9071 280.877 53.8156 284.012 51.4188 287.655C51.3464 287.762 51.2486 287.849 51.1341 287.909C51.0197 287.969 50.8921 288 50.7629 287.998Z" fill="black"/>
<path d="M210.618 406.533C209.8 406.009 208.886 405.651 207.929 405.48C206.973 405.309 205.992 405.328 205.042 405.536C204.093 405.744 203.194 406.137 202.397 406.692C201.6 407.248 200.92 407.955 200.396 408.773L196.305 415.22C195.64 416.253 194.642 417.028 193.476 417.417C192.31 417.806 191.046 417.786 189.894 417.359L188.504 416.836H188.442C186.654 416.173 185.148 414.917 184.176 413.278C183.204 411.638 182.824 409.715 183.101 407.829L183.694 403.755C183.862 402.689 183.645 401.599 183.081 400.679C182.517 399.759 181.644 399.07 180.618 398.736C180.006 398.55 179.361 398.497 178.727 398.583C178.094 398.669 177.486 398.891 176.946 399.233C176.406 399.576 175.947 400.031 175.599 400.567C175.252 401.104 175.024 401.709 174.933 402.342L174.316 406.557C173.417 412.357 170.766 417.744 166.718 421.995C166.13 422.626 165.582 423.293 165.079 423.993C164.605 424.653 163.932 425.143 163.159 425.39C162.385 425.637 161.553 425.629 160.784 425.366C160.016 425.104 159.352 424.6 158.893 423.931C158.433 423.262 158.201 422.463 158.231 421.652L158.402 415.736C158.435 414.918 158.648 414.119 159.027 413.394L166.336 399.571C167.874 396.669 168.678 393.435 168.678 390.151V373.182C168.678 372.909 168.678 372.644 168.678 372.402C168.532 369.555 169.119 366.717 170.384 364.162C171.648 361.606 173.548 359.418 175.901 357.807L180.899 354.443C181.804 353.851 182.467 352.955 182.768 351.917C183.069 350.879 182.987 349.767 182.538 348.784C182.265 348.207 181.871 347.697 181.382 347.287C180.893 346.877 180.321 346.578 179.705 346.41C179.09 346.241 178.445 346.208 177.815 346.312C177.186 346.416 176.586 346.655 176.057 347.012L166.32 353.561C165.72 353.958 165.047 354.233 164.34 354.369C163.633 354.506 162.906 354.502 162.201 354.357C161.496 354.212 160.826 353.929 160.23 353.524C159.635 353.12 159.125 352.602 158.73 352C158.73 352 151.367 344.343 149.196 341.549C146.526 338.107 143.215 335.133 139.756 337.99C136.828 340.401 139.139 345.623 141.099 348.87C144.269 354.107 153.015 370.256 153.015 370.256C153.587 371.13 153.894 372.153 153.897 373.198V390.112C153.896 390.988 153.681 391.85 153.272 392.625L145.956 406.455C145.808 406.753 145.568 406.996 145.273 407.148C144.977 407.301 144.64 407.355 144.312 407.302C143.983 407.25 143.68 407.094 143.446 406.858C143.212 406.621 143.06 406.316 143.012 405.987L140.513 390.611C140.243 388.933 139.76 387.297 139.077 385.741C138.333 384.074 138.168 382.206 138.61 380.435C139.051 378.664 140.073 377.092 141.513 375.969L142.458 375.235C142.995 374.819 143.429 374.285 143.728 373.675C144.028 373.065 144.183 372.395 144.183 371.715V361.116C144.2 359.967 143.78 358.854 143.01 358.002C142.239 357.149 141.174 356.619 140.029 356.519C139.427 356.486 138.824 356.576 138.258 356.783C137.692 356.991 137.174 357.311 136.735 357.725C136.297 358.139 135.948 358.638 135.709 359.192C135.469 359.745 135.345 360.341 135.344 360.944V369.53C135.045 369.763 134.696 369.924 134.324 370.002C133.953 370.08 133.569 370.073 133.201 369.98C132.833 369.888 132.491 369.713 132.2 369.468C131.91 369.224 131.679 368.916 131.526 368.57L129.574 364.152C129.326 363.602 129.175 363.013 129.129 362.412L128.145 350.072C127.752 345.023 125.462 340.31 121.734 336.881C121.734 336.881 113.925 329.49 111.177 327.141C105.399 322.138 98.4882 327.921 102.837 334.493C105.039 337.81 111.7 347.761 111.7 347.761C112.69 348.68 113.3 349.936 113.41 351.282L114.394 363.606C114.575 365.868 115.135 368.084 116.049 370.162C116.049 370.36 116.004 370.556 115.915 370.734C115.827 370.912 115.699 371.067 115.541 371.187C115.383 371.307 115.2 371.389 115.005 371.426C114.81 371.464 114.609 371.456 114.417 371.403L110.092 370.193C109.509 370.029 108.898 369.987 108.298 370.068C107.698 370.15 107.122 370.353 106.603 370.666C106.085 370.979 105.637 371.395 105.286 371.889C104.935 372.382 104.689 372.942 104.563 373.534C104.349 374.663 104.57 375.832 105.183 376.805C105.796 377.778 106.755 378.483 107.866 378.779L113.855 380.449C116.263 381.126 118.492 382.326 120.382 383.964C122.272 385.602 123.776 387.637 124.787 389.924L125.568 391.673C125.752 392.092 125.883 392.532 125.958 392.984L126.06 393.624C126.131 394.052 126.066 394.491 125.875 394.881C125.683 395.27 125.375 395.589 124.992 395.794C124.61 395.999 124.173 396.079 123.742 396.023C123.312 395.967 122.91 395.778 122.593 395.481L122.554 395.442L100.573 379.583C99.5471 378.65 98.9277 377.353 98.8474 375.969L98.2305 361.779C97.8401 355.613 84.5345 350.243 81.3721 348.815C71.7286 344.468 69.6594 351.976 73.0717 354.279L85.7838 362.927C86.4631 363.387 87.0276 363.998 87.4337 364.711C87.8398 365.424 88.0768 366.221 88.1263 367.04L88.7432 376.898C88.8218 378.1 89.0047 379.294 89.2898 380.465H89.2195L73.8994 378.537C72.4708 378.362 71.1345 377.739 70.0823 376.757C69.0301 375.775 68.3162 374.486 68.043 373.073C67.3715 369.694 66.8718 367.672 65.5677 366.603C64.5136 365.736 59.321 366.103 58.7119 374.174C58.6182 375.477 57.0253 378.708 53.6442 378.63C52.0825 378.63 48.6468 380.394 48.2798 384.094C48.1438 385.537 48.5415 386.979 49.3977 388.148C50.2538 389.318 51.509 390.133 52.9258 390.439C52.9258 390.439 58.7353 391.579 61.8119 392C62.8296 392.122 63.7813 392.567 64.5275 393.27C65.2738 393.972 65.7752 394.895 65.9582 395.903C66.497 398.947 67.3481 403.123 68.3007 404.816C68.902 405.94 70.3465 406.206 71.5256 406.206C72.6584 406.208 73.7488 405.775 74.5709 404.996C75.5001 404.114 76.7572 401.265 77.7567 398.752C77.9792 398.176 78.3199 397.654 78.7568 397.219C79.1938 396.783 79.7172 396.444 80.2934 396.224C80.8696 396.003 81.4857 395.906 82.1019 395.938C82.7181 395.97 83.3207 396.131 83.8708 396.41C88.915 399.002 93.5298 402.178 95.9895 407.431C96.5767 408.688 96.6523 410.124 96.2003 411.435L94.0139 417.827V417.89C93.43 419.608 92.2682 421.072 90.7264 422.031C89.1846 422.99 87.358 423.386 85.5574 423.15L79.0607 422.3C78.4596 422.221 77.8488 422.267 77.2661 422.434C76.6834 422.601 76.1412 422.886 75.6729 423.271C75.2046 423.656 74.8201 424.132 74.5433 424.671C74.2664 425.21 74.1031 425.8 74.0633 426.405C74.0202 427.547 74.4095 428.664 75.1534 429.532C75.8973 430.4 76.9412 430.955 78.0769 431.088L84.1753 431.869C88.8603 432.485 95.4429 435.771 98.8942 439.041C101.851 441.692 105.502 443.446 109.42 444.099C110.315 444.262 111.154 444.652 111.855 445.231C112.556 445.811 113.097 446.56 113.426 447.408L120.274 464.814L128.769 464.603C135.461 463.331 135.094 451.615 136.109 448.845C137.671 444.661 143.715 439.877 145.846 438.612C154.623 433.398 171.614 440.173 171.614 440.173L177.151 432.454C177.837 431.494 178.822 430.787 179.951 430.444C181.081 430.101 182.293 430.141 183.397 430.557L184.795 431.08C189.112 432.674 193.844 432.75 198.21 431.295C202.576 429.841 206.316 426.944 208.814 423.08L212.89 416.781C213.418 415.961 213.778 415.043 213.95 414.083C214.121 413.122 214.101 412.137 213.89 411.184C213.678 410.231 213.281 409.33 212.719 408.532C212.157 407.733 211.443 407.054 210.618 406.533Z" fill="#EC8C92"/>
<path d="M218.863 506.071L216.794 504.979C217.136 504.244 217.309 503.441 217.299 502.631C217.29 501.82 217.098 501.022 216.739 500.295C214.857 495.784 208.759 491.616 199.998 488.877L199.787 488.806C195.883 487.589 193.134 486.465 192.354 484.959L187.208 475.054C185.326 471.425 180.961 469.083 176.128 469.083C174.946 469.13 173.778 468.82 172.775 468.193C171.772 467.567 170.981 466.653 170.505 465.571C170.186 464.741 169.687 463.993 169.042 463.38C168.398 462.767 167.626 462.305 166.781 462.027C165.413 461.599 163.97 461.468 162.548 461.643C161.126 461.818 159.758 462.295 158.535 463.042C157.673 463.575 156.841 464.156 156.044 464.782C153.491 466.695 150.305 469.083 145.893 469.083L144.136 469.177C139.248 469.177 136.094 471.183 133.845 475.678L128.683 486.028C125.919 491.554 127.184 497.806 131.963 502.34L130.354 504.042C124.795 498.766 123.327 491.46 126.583 484.982L131.752 474.632C134.368 469.387 138.397 466.827 144.074 466.827L145.823 466.734C149.524 466.734 152.241 464.697 154.639 462.901C155.511 462.221 156.42 461.59 157.364 461.013C158.887 460.097 160.589 459.519 162.356 459.318C164.122 459.117 165.911 459.299 167.601 459.85C168.766 460.24 169.83 460.883 170.717 461.733C171.604 462.584 172.292 463.62 172.731 464.767C173.043 465.399 173.535 465.925 174.144 466.281C174.754 466.636 175.454 466.804 176.159 466.765C181.867 466.765 187.036 469.606 189.316 474L194.423 483.905C194.602 484.264 195.641 485.083 200.482 486.598L200.693 486.668C213.593 490.703 217.637 496.393 218.894 499.421C219.383 500.463 219.633 501.6 219.628 502.75C219.622 503.9 219.361 505.034 218.863 506.071Z" fill="#93B4F6"/>
<path d="M121.867 463.159C121.086 460.872 121.375 458.32 122.749 455.557C123.178 453.688 123.254 451.756 122.975 449.859L116.065 444.224C114.497 442.953 113.286 441.296 112.551 439.416L108.998 430.315C108.92 430.12 108.85 429.925 108.787 429.722C108.25 428.241 107.327 426.93 106.113 425.925C104.9 424.919 103.44 424.255 101.885 424.001L98.5194 423.353C97.7718 423.216 97.0952 422.823 96.6052 422.242C96.1153 421.661 95.8424 420.929 95.8333 420.169C95.8622 419.692 95.9928 419.226 96.2163 418.803C96.4399 418.381 96.7512 418.011 97.1294 417.718C97.5253 417.405 97.9839 417.18 98.4743 417.058C98.9646 416.937 99.4753 416.923 99.9717 417.016L106.952 418.358C107.662 418.496 108.397 418.361 109.011 417.981C109.624 417.6 110.072 417.002 110.263 416.305L110.302 416.188C110.302 416.134 112.942 410.428 113.59 408.493C114.043 407.127 115.425 402.982 119.056 404.044C121.531 404.762 120.789 407.946 120.25 410.241C120.172 410.576 120.094 410.904 120.032 411.201C119.446 414.026 117.845 419.786 117.182 422.128C117.045 422.589 117.045 423.08 117.182 423.541C118.507 427.683 120.184 431.704 122.195 435.56V435.638C122.342 436.007 122.581 436.332 122.89 436.583L130.011 442.382C130.071 442.423 130.141 442.445 130.214 442.445C130.286 442.445 130.357 442.423 130.417 442.382C130.473 442.353 130.519 442.308 130.549 442.252C130.578 442.196 130.589 442.132 130.581 442.07L128.801 433.242C128.595 432.215 128.526 431.165 128.597 430.12C128.65 429.207 128.381 428.304 127.836 427.57C127.29 426.835 126.504 426.315 125.615 426.101L124.92 425.921C124.434 425.798 123.984 425.563 123.607 425.233C123.23 424.903 122.936 424.489 122.749 424.025L120.578 418.342C120.301 417.624 120.283 416.832 120.529 416.102C120.774 415.373 121.266 414.751 121.921 414.346C122.21 414.136 122.543 413.994 122.895 413.932C123.247 413.869 123.608 413.888 123.951 413.987C124.959 414.323 125.513 415.416 125.794 416.212L127.52 420.629C127.857 420.659 128.197 420.6 128.504 420.458C129.105 420.216 129.371 419.896 129.386 419.802L129.628 416.415C129.643 416.152 129.614 415.888 129.542 415.634L128.558 412.184C127.695 409.188 128.037 405.972 129.511 403.224C129.875 402.218 130.338 401.251 130.893 400.336C132.346 397.8 134.743 397.347 136.359 397.995C137.741 398.549 139.108 400.165 138.421 402.889C138.335 403.224 138.21 403.583 138.085 403.973C137.366 406.073 136.289 409.257 139.865 416.344C139.865 416.422 139.92 416.438 139.951 416.446C139.978 416.459 140.007 416.466 140.037 416.466C140.067 416.466 140.096 416.459 140.123 416.446L142.364 414.822C142.779 414.519 143.255 414.31 143.76 414.21C144.264 414.11 144.785 414.122 145.284 414.245C145.738 414.351 146.162 414.558 146.526 414.85C146.889 415.142 147.183 415.511 147.385 415.931C147.679 416.627 147.722 417.404 147.507 418.128C147.292 418.853 146.832 419.48 146.206 419.903L143.082 422.151C141.928 422.964 140.966 424.019 140.264 425.244C139.562 426.468 139.138 427.832 139.022 429.238L138.944 430.347C138.912 430.554 138.912 430.764 138.944 430.971L139.014 431.338C139.103 431.687 139.279 432.008 139.527 432.27C139.774 432.532 140.084 432.727 140.427 432.836C142.528 433.531 146.362 431.97 150.953 428.544C151.388 428.226 151.897 428.026 152.432 427.963C152.967 427.9 153.509 427.976 154.005 428.184C154.502 428.392 154.936 428.725 155.266 429.151C155.596 429.576 155.81 430.079 155.888 430.612C156.036 431.767 156.146 433.086 156.216 434.515L154.943 434.577C154.873 433.18 154.771 431.9 154.623 430.776C154.585 430.462 154.464 430.164 154.273 429.912C154.083 429.66 153.829 429.463 153.538 429.34C153.242 429.213 152.917 429.167 152.597 429.207C152.278 429.247 151.974 429.371 151.718 429.566C146.713 433.297 142.559 434.889 140.006 434.038C139.461 433.859 138.97 433.545 138.579 433.127C138.187 432.708 137.907 432.197 137.765 431.642L137.679 431.229C137.615 430.91 137.594 430.585 137.616 430.261L137.694 429.145C137.827 427.553 138.306 426.01 139.099 424.624C139.893 423.237 140.98 422.042 142.286 421.121L145.409 418.873C145.804 418.621 146.099 418.239 146.241 417.793C146.384 417.347 146.366 416.865 146.19 416.43C146.067 416.177 145.889 415.954 145.669 415.778C145.449 415.603 145.192 415.479 144.917 415.416C144.598 415.338 144.265 415.332 143.943 415.397C143.62 415.461 143.316 415.596 143.051 415.79L140.81 417.414C140.629 417.546 140.42 417.634 140.199 417.672C139.978 417.71 139.752 417.696 139.537 417.632C139.339 417.578 139.156 417.48 139.002 417.345C138.848 417.209 138.726 417.041 138.647 416.852C134.86 409.343 136.039 405.862 136.82 403.583C136.945 403.232 137.054 402.912 137.132 402.6C137.616 400.672 136.781 399.579 135.828 399.197C134.712 398.744 133.017 399.119 131.924 400.992C131.409 401.839 130.98 402.736 130.643 403.669L130.596 403.794C129.25 406.26 128.933 409.158 129.714 411.856L130.667 415.259C130.785 415.667 130.83 416.093 130.799 416.516L130.557 419.896C130.511 420.583 129.894 421.23 128.91 421.636C128.543 421.792 127.27 422.237 126.497 421.558L126.38 421.457L124.514 416.68C124.1 415.611 123.733 415.283 123.452 415.197C123.285 415.168 123.114 415.174 122.949 415.216C122.785 415.257 122.632 415.333 122.499 415.439C122.096 415.686 121.793 416.067 121.642 416.515C121.491 416.962 121.501 417.449 121.671 417.89L123.889 423.58C124.001 423.857 124.178 424.104 124.405 424.299C124.632 424.495 124.902 424.634 125.193 424.704L125.888 424.883C127.064 425.169 128.102 425.862 128.816 426.839C129.531 427.816 129.876 429.014 129.792 430.222C129.724 431.162 129.782 432.107 129.964 433.032L131.752 441.859C131.813 442.182 131.77 442.516 131.63 442.813C131.489 443.11 131.259 443.355 130.971 443.514C130.685 443.691 130.35 443.774 130.014 443.751C129.678 443.729 129.358 443.602 129.097 443.389L121.992 437.598C121.519 437.217 121.151 436.723 120.922 436.161C118.875 432.244 117.172 428.157 115.831 423.947C115.62 423.249 115.62 422.505 115.831 421.808C116.487 419.466 118.087 413.753 118.665 410.967C118.728 410.655 118.806 410.327 118.884 409.976C119.438 407.634 119.79 405.644 118.579 405.292C116.854 404.793 115.682 405.878 114.675 408.922C114.035 410.842 111.653 416.079 111.364 416.727C111.082 417.725 110.435 418.581 109.552 419.126C108.668 419.671 107.613 419.865 106.593 419.669L99.6125 418.327C99.2945 418.27 98.968 418.281 98.6545 418.359C98.341 418.437 98.0475 418.58 97.7931 418.78C97.4809 418.996 97.242 419.302 97.1083 419.657C96.9747 420.012 96.9526 420.4 97.0451 420.768C97.1376 421.136 97.3403 421.467 97.626 421.717C97.9117 421.967 98.267 422.124 98.6443 422.167L102.002 422.815C103.782 423.112 105.45 423.879 106.835 425.036C108.22 426.192 109.271 427.697 109.881 429.394C109.935 429.566 109.998 429.746 110.068 429.917L113.722 438.956C114.38 440.627 115.455 442.103 116.846 443.241L124.147 449.18V449.422C124.506 451.594 124.426 453.815 123.912 455.955L123.866 456.072C122.632 458.531 122.343 460.755 123.022 462.745L121.867 463.159Z" fill="white"/>
<path d="M95.6068 499.773C94.8884 491.273 101.018 475.148 107.749 467.826C110.263 465.087 112.715 463.698 115.026 463.698H126.997C128.65 463.685 130.232 463.024 131.4 461.855C132.569 460.687 133.231 459.106 133.244 457.454C133.243 453.94 134.071 450.476 135.662 447.343C137.252 444.21 139.56 441.496 142.396 439.421C145.233 437.347 148.52 435.97 151.989 435.404C155.458 434.838 159.011 435.097 162.361 436.161L171.294 439.002C175.678 440.364 180.202 441.225 184.779 441.57C222.112 444.599 237.877 464.4 241.289 475.624L243.233 481.977L240.992 482.664L239.048 476.303C235.8 465.649 220.667 446.831 184.584 443.904C179.835 443.53 175.144 442.622 170.599 441.196L161.666 438.362C158.668 437.41 155.487 437.178 152.381 437.685C149.276 438.192 146.334 439.424 143.795 441.281C141.256 443.138 139.19 445.567 137.767 448.372C136.343 451.177 135.601 454.277 135.602 457.422C135.589 459.696 134.681 461.872 133.072 463.48C131.464 465.087 129.287 465.996 127.012 466.008H115.026C113.418 466.008 111.497 467.179 109.475 469.38C103.228 476.193 97.2778 491.702 97.9415 499.546L95.6068 499.773Z" fill="#274D76"/>
<path d="M452.906 277.321V275.76H443.817C442.329 275.758 440.902 275.166 439.85 274.114C438.797 273.062 438.205 271.636 438.203 270.148V242.729H414.879V244.29C414.879 244.899 414.715 305.357 414.879 321.638V325.494L417.534 322.699C426.022 313.771 436.493 313.653 446.613 313.544C448.174 313.544 449.814 313.544 451.384 313.45L452.867 313.404V311.913C453.07 298.512 452.906 277.532 452.906 277.321ZM451.344 311.913C439.882 312.311 426.763 310.773 416.417 321.646C416.253 305.185 416.417 244.321 416.417 244.321H436.626V270.164C436.626 271.106 436.811 272.038 437.172 272.909C437.532 273.779 438.061 274.57 438.727 275.236C439.394 275.902 440.185 276.43 441.055 276.791C441.926 277.151 442.859 277.337 443.802 277.337H451.344C451.344 277.337 451.508 298.348 451.344 311.913Z" fill="#74BAAB"/>
<path d="M467.781 238.374C468.859 234.026 470.178 228.539 471.6 222.498C472.509 218.624 474.699 215.17 477.817 212.695C480.935 210.221 484.797 208.87 488.778 208.863H514.46C519.316 208.86 524.046 207.321 527.974 204.466C531.901 201.612 534.824 197.588 536.324 192.972C535.738 192.972 535.145 193.011 534.512 193.011C518.716 193.011 518.716 184.55 502.927 184.55C487.138 184.55 487.177 193.011 471.35 193.011C455.522 193.011 455.561 184.55 439.765 184.55C423.968 184.55 423.976 193.011 408.179 193.011C392.383 193.011 392.383 184.55 376.594 184.55C360.805 184.55 360.798 193.011 345.009 193.011C329.22 193.011 329.236 184.55 313.455 184.55C297.674 184.55 297.658 193.011 281.87 193.011C266.081 193.011 266.073 184.55 250.284 184.55C234.496 184.55 234.496 193.011 218.699 193.011C202.903 193.011 202.911 184.55 187.122 184.55C171.333 184.55 171.333 193.011 155.537 193.011C151.609 193.116 147.702 192.401 144.066 190.911C143.213 194.157 142.783 197.499 142.785 200.855C142.785 283.284 222.338 347.996 304.811 347.996H363.64C382.278 347.996 400.153 340.595 413.333 327.421C426.512 314.248 433.916 296.38 433.916 277.75C433.916 266.449 444.067 259.564 454.382 256.232C465.447 252.665 465.251 248.52 467.781 238.374Z" fill="#74BAAB"/>
<path d="M316.742 34.9197C308.353 34.9197 300.307 38.2509 294.375 44.1805C288.443 50.1101 285.11 58.1523 285.11 66.538V97.8986H306.271V66.538C306.273 63.7627 307.377 61.1017 309.34 59.1393C311.304 57.1769 313.966 56.0735 316.742 56.0714C319.02 56.0714 321.205 55.1669 322.816 53.5568C324.427 51.9467 325.332 49.7629 325.332 47.4859V43.4663C325.321 41.196 324.412 39.0222 322.802 37.4206C321.192 35.8189 319.013 34.9197 316.742 34.9197Z" fill="#FFF3A1"/>
<path d="M155.529 193.011C171.325 193.011 171.325 184.55 187.114 184.55C202.903 184.55 202.91 193.011 218.699 193.011C234.488 193.011 234.496 184.55 250.284 184.55C266.073 184.55 266.073 193.011 281.87 193.011C297.666 193.011 297.658 184.55 313.455 184.55C329.251 184.55 329.236 193.011 345.04 193.011C360.844 193.011 360.829 184.55 376.625 184.55C392.422 184.55 392.414 193.011 408.21 193.011C424.007 193.011 424.007 184.55 439.796 184.55C455.584 184.55 455.592 193.011 471.381 193.011C487.17 193.011 487.177 184.55 502.974 184.55C518.77 184.55 518.763 193.011 534.559 193.011C535.192 193.011 535.785 193.011 536.371 192.972C537.116 190.681 537.495 188.286 537.495 185.877V131.195C537.495 128.524 536.442 125.961 534.563 124.061C532.685 122.162 530.133 121.079 527.461 121.048C519.591 121.019 511.869 123.18 505.158 127.289C498.448 131.399 493.014 137.294 489.465 144.315L487.209 148.795C485.212 152.735 482.162 156.044 478.398 158.356C474.633 160.668 470.302 161.892 465.884 161.892H379.834C378.172 161.892 376.526 161.565 374.991 160.929C373.455 160.293 372.06 159.361 370.884 158.187C369.709 157.012 368.777 155.617 368.14 154.082C367.504 152.547 367.177 150.902 367.177 149.24V144.776C367.177 125.724 360.594 111.042 338.832 101.419C329.411 97.3841 319.492 94.6254 309.34 93.2157C286.906 90 265.277 92.0995 265.277 114.75V146.391C265.275 150.503 263.639 154.446 260.729 157.353C257.82 160.259 253.875 161.892 249.761 161.892H181.75C173.144 161.893 164.78 164.74 157.962 169.989C151.144 175.238 146.256 182.595 144.058 190.911C147.694 192.401 151.601 193.116 155.529 193.011Z" fill="#FFF3A1"/>
<path d="M316.368 53.7768C314.392 53.7726 312.498 52.9858 311.102 51.5886C309.706 50.1914 308.92 48.2978 308.918 46.3229V44.5512C308.981 42.6171 309.794 40.7832 311.184 39.4372C312.575 38.0911 314.435 37.3386 316.371 37.3386C318.307 37.3386 320.167 38.0911 321.558 39.4372C322.949 40.7832 323.762 42.6171 323.825 44.5512V46.3229C323.823 48.2992 323.036 50.1939 321.638 51.5913C320.24 52.9887 318.345 53.7747 316.368 53.7768ZM316.368 38.6662C314.807 38.6683 313.31 39.289 312.207 40.3922C311.103 41.4954 310.482 42.991 310.48 44.5512V46.3229C310.451 47.1143 310.582 47.9034 310.865 48.643C311.148 49.3826 311.578 50.0577 312.128 50.6277C312.677 51.1978 313.337 51.6512 314.066 51.9609C314.795 52.2706 315.579 52.4302 316.371 52.4302C317.164 52.4302 317.948 52.2706 318.677 51.9609C319.406 51.6512 320.065 51.1978 320.615 50.6277C321.165 50.0577 321.594 49.3826 321.878 48.643C322.161 47.9034 322.292 47.1143 322.263 46.3229V44.5512C322.261 42.9897 321.639 41.4928 320.533 40.3894C319.428 39.286 317.93 38.6662 316.368 38.6662Z" fill="#274D76"/>
<path d="M475.902 208.293C475.842 208.301 475.782 208.301 475.722 208.293C463.44 205.093 456.115 196.117 456.115 184.285V182.217C456.102 178.328 457.006 174.49 458.755 171.016C460.3 167.955 462.591 165.33 465.415 163.383C465.569 163.296 465.751 163.271 465.923 163.312C466.095 163.353 466.245 163.457 466.343 163.604C466.442 163.75 466.482 163.929 466.454 164.104C466.427 164.278 466.335 164.436 466.196 164.546C463.567 166.357 461.435 168.799 459.996 171.648C458.349 174.927 457.496 178.547 457.505 182.217V184.285C457.505 195.602 464.267 203.852 476.066 206.919C476.227 206.968 476.365 207.073 476.456 207.214C476.547 207.355 476.586 207.523 476.564 207.69C476.543 207.857 476.463 208.01 476.339 208.123C476.214 208.237 476.054 208.302 475.886 208.309L475.902 208.293Z" fill="black"/>
<path d="M531.803 155.071H512.492C508.509 155.075 504.69 156.658 501.874 159.474C499.057 162.289 497.473 166.106 497.469 170.088V202.439C497.469 202.626 497.543 202.804 497.675 202.936C497.807 203.068 497.985 203.142 498.172 203.142C498.358 203.142 498.537 203.068 498.669 202.936C498.801 202.804 498.875 202.626 498.875 202.439V170.088C498.881 166.48 500.318 163.022 502.87 160.472C505.423 157.922 508.883 156.487 512.492 156.483H531.803C531.902 156.494 532.002 156.483 532.097 156.452C532.191 156.422 532.279 156.371 532.353 156.305C532.427 156.238 532.486 156.157 532.526 156.066C532.567 155.975 532.588 155.877 532.588 155.777C532.588 155.677 532.567 155.579 532.526 155.488C532.486 155.397 532.427 155.316 532.353 155.249C532.279 155.183 532.191 155.132 532.097 155.101C532.002 155.071 531.902 155.06 531.803 155.071Z" fill="black"/>
<path d="M348.312 113.47H270.259V115.031H348.312V113.47Z" fill="#274D76"/>
<path d="M357.776 127.308H271.352V128.869H357.776V127.308Z" fill="#274D76"/>
<path d="M370.339 161.112H263.395V162.673H370.339V161.112Z" fill="#274D76"/>
<path d="M311.011 286.648C303.66 286.648 296.474 284.469 290.361 280.387C284.249 276.304 279.485 270.502 276.672 263.713C273.859 256.925 273.123 249.455 274.557 242.248C275.991 235.041 279.531 228.421 284.729 223.226C289.927 218.03 296.55 214.491 303.76 213.058C310.97 211.624 318.443 212.36 325.234 215.172C332.026 217.984 337.831 222.746 341.915 228.855C345.999 234.965 348.179 242.148 348.179 249.496C348.167 259.346 344.247 268.788 337.279 275.753C330.311 282.717 320.865 286.636 311.011 286.648ZM311.011 213.905C303.968 213.905 297.084 215.992 291.229 219.903C285.373 223.814 280.81 229.373 278.115 235.876C275.42 242.379 274.715 249.535 276.088 256.439C277.462 263.343 280.854 269.685 285.833 274.663C290.813 279.64 297.157 283.03 304.064 284.403C310.971 285.776 318.131 285.072 324.637 282.378C331.143 279.684 336.704 275.122 340.617 269.269C344.529 263.416 346.617 256.535 346.617 249.496C346.607 240.06 342.852 231.013 336.177 224.341C329.502 217.668 320.451 213.915 311.011 213.905Z" fill="white"/>
<path d="M311.011 267.744C321.093 267.744 329.267 259.574 329.267 249.496C329.267 239.418 321.093 231.248 311.011 231.248C300.928 231.248 292.755 239.418 292.755 249.496C292.755 259.574 300.928 267.744 311.011 267.744Z" fill="#274D76"/>
<path d="M340.828 250.094C341.184 247.881 339.677 245.799 337.463 245.444C335.249 245.088 333.166 246.595 332.81 248.808C332.455 251.021 333.962 253.103 336.176 253.458C338.39 253.814 340.473 252.308 340.828 250.094Z" fill="white"/>
<path d="M287.381 250.098C287.737 247.885 286.23 245.803 284.016 245.447C281.802 245.092 279.719 246.598 279.363 248.811C279.008 251.025 280.514 253.107 282.729 253.462C284.943 253.817 287.026 252.311 287.381 250.098Z" fill="white"/>
<path d="M228.889 278.117C223.226 278.117 217.69 276.438 212.981 273.294C208.273 270.149 204.602 265.679 202.435 260.449C200.268 255.219 199.701 249.464 200.806 243.912C201.911 238.36 204.638 233.261 208.642 229.258C212.647 225.255 217.749 222.529 223.303 221.425C228.858 220.32 234.615 220.887 239.847 223.054C245.079 225.22 249.551 228.888 252.697 233.595C255.844 238.302 257.523 243.835 257.523 249.496C257.515 257.084 254.495 264.359 249.127 269.725C243.759 275.091 236.481 278.109 228.889 278.117ZM228.889 222.436C223.535 222.436 218.301 224.023 213.849 226.996C209.397 229.97 205.927 234.196 203.878 239.141C201.829 244.085 201.293 249.526 202.337 254.775C203.382 260.024 205.96 264.846 209.747 268.63C213.533 272.415 218.356 274.992 223.608 276.036C228.859 277.08 234.302 276.544 239.249 274.496C244.196 272.448 248.424 268.98 251.399 264.53C254.373 260.08 255.961 254.848 255.961 249.496C255.953 242.322 253.098 235.444 248.023 230.371C242.948 225.298 236.067 222.444 228.889 222.436Z" fill="white"/>
<path d="M238.769 259.374C244.228 253.918 244.228 245.072 238.769 239.616C233.311 234.16 224.461 234.16 219.002 239.616C213.544 245.072 213.544 253.918 219.002 259.374C224.461 264.83 233.311 264.83 238.769 259.374Z" fill="#274D76"/>
<path d="M251.737 249.457C251.737 250.074 251.554 250.678 251.211 251.191C250.867 251.705 250.38 252.105 249.809 252.341C249.238 252.578 248.61 252.639 248.004 252.519C247.398 252.399 246.842 252.101 246.405 251.665C245.968 251.228 245.671 250.672 245.55 250.066C245.43 249.46 245.492 248.833 245.728 248.262C245.964 247.692 246.365 247.204 246.878 246.861C247.392 246.518 247.996 246.335 248.614 246.335C249.442 246.335 250.236 246.664 250.822 247.249C251.408 247.835 251.737 248.629 251.737 249.457Z" fill="white"/>
<path d="M210.828 249.457C210.828 250.074 210.645 250.678 210.302 251.191C209.959 251.705 209.471 252.105 208.9 252.341C208.33 252.578 207.701 252.639 207.096 252.519C206.49 252.399 205.933 252.101 205.496 251.665C205.06 251.228 204.762 250.672 204.642 250.066C204.521 249.46 204.583 248.833 204.819 248.262C205.056 247.692 205.456 247.204 205.97 246.861C206.483 246.518 207.087 246.335 207.705 246.335C208.533 246.335 209.328 246.664 209.914 247.249C210.499 247.835 210.828 248.629 210.828 249.457Z" fill="white"/>
<path d="M391.422 278.117C385.759 278.117 380.223 276.438 375.514 273.294C370.805 270.149 367.135 265.679 364.968 260.449C362.801 255.219 362.234 249.464 363.339 243.912C364.444 238.36 367.171 233.261 371.175 229.258C375.18 225.255 380.282 222.529 385.836 221.425C391.39 220.32 397.148 220.887 402.38 223.054C407.612 225.22 412.084 228.888 415.23 233.595C418.376 238.302 420.056 243.835 420.056 249.496C420.048 257.084 417.028 264.359 411.66 269.725C406.292 275.091 399.014 278.109 391.422 278.117ZM391.422 222.436C386.068 222.436 380.834 224.023 376.382 226.996C371.93 229.97 368.46 234.196 366.411 239.141C364.362 244.085 363.826 249.526 364.87 254.775C365.915 260.024 368.493 264.846 372.279 268.63C376.066 272.415 380.889 274.992 386.141 276.036C391.392 277.08 396.835 276.544 401.782 274.496C406.729 272.448 410.957 268.98 413.932 264.53C416.906 260.08 418.494 254.848 418.494 249.496C418.486 242.322 415.631 235.444 410.556 230.371C405.481 225.298 398.6 222.444 391.422 222.436Z" fill="white"/>
<path d="M401.306 259.371C406.764 253.915 406.764 245.069 401.306 239.613C395.847 234.157 386.997 234.157 381.539 239.613C376.08 245.069 376.08 253.915 381.539 259.371C386.997 264.827 395.847 264.827 401.306 259.371Z" fill="#274D76"/>
<path d="M414.27 249.457C414.27 250.074 414.087 250.678 413.743 251.191C413.4 251.705 412.912 252.105 412.342 252.341C411.771 252.578 411.143 252.639 410.537 252.519C409.931 252.399 409.375 252.101 408.938 251.665C408.501 251.228 408.203 250.672 408.083 250.066C407.962 249.46 408.024 248.833 408.261 248.262C408.497 247.692 408.897 247.204 409.411 246.861C409.925 246.518 410.529 246.335 411.146 246.335C411.975 246.335 412.769 246.664 413.355 247.249C413.941 247.835 414.27 248.629 414.27 249.457Z" fill="white"/>
<path d="M373.362 249.457C373.362 250.074 373.178 250.678 372.835 251.191C372.492 251.705 372.004 252.105 371.433 252.341C370.863 252.578 370.235 252.639 369.629 252.519C369.023 252.399 368.466 252.101 368.03 251.665C367.593 251.228 367.295 250.672 367.175 250.066C367.054 249.46 367.116 248.833 367.352 248.262C367.589 247.692 367.989 247.204 368.503 246.861C369.017 246.518 369.62 246.335 370.238 246.335C371.067 246.335 371.861 246.664 372.447 247.249C373.032 247.835 373.362 248.629 373.362 249.457Z" fill="white"/>
<path d="M191.135 173.007H189.574V283.487H191.135V173.007Z" fill="white"/>
<path d="M437.25 414.034C436.905 414.033 436.561 413.985 436.227 413.894L305.811 377.756C304.812 377.479 303.965 376.816 303.456 375.915C302.946 375.013 302.816 373.946 303.093 372.948C303.371 371.951 304.033 371.104 304.935 370.594C305.837 370.085 306.905 369.955 307.903 370.232L438.304 406.385C439.217 406.637 440.007 407.211 440.528 408.002C441.048 408.792 441.264 409.745 441.134 410.683C441.004 411.62 440.538 412.478 439.822 413.098C439.106 413.717 438.189 414.056 437.242 414.05L437.25 414.034Z" fill="#93B4F6"/>
<path d="M306.341 340.167C302.678 340.167 299.097 341.253 296.051 343.287C293.006 345.322 290.632 348.213 289.23 351.596C287.828 354.979 287.461 358.701 288.176 362.293C288.89 365.884 290.654 369.183 293.245 371.772C295.835 374.361 299.135 376.124 302.728 376.839C306.321 377.553 310.045 377.186 313.429 375.785C316.814 374.384 319.707 372.011 321.742 368.966C323.777 365.922 324.863 362.342 324.863 358.681C324.863 353.771 322.912 349.062 319.438 345.59C315.965 342.118 311.254 340.167 306.341 340.167ZM306.341 366.86C304.723 366.86 303.141 366.381 301.795 365.482C300.449 364.583 299.401 363.306 298.781 361.811C298.162 360.316 298 358.672 298.315 357.085C298.631 355.498 299.411 354.041 300.555 352.897C301.7 351.753 303.158 350.974 304.745 350.658C306.332 350.343 307.978 350.505 309.473 351.124C310.968 351.743 312.246 352.791 313.146 354.136C314.045 355.482 314.525 357.063 314.525 358.681C314.516 360.845 313.651 362.917 312.117 364.444C310.583 365.972 308.506 366.829 306.341 366.829V366.86Z" fill="#274D76"/>
<path d="M306.341 338.606C302.369 338.606 298.486 339.784 295.184 341.989C291.881 344.195 289.307 347.33 287.787 350.999C286.267 354.667 285.869 358.703 286.644 362.597C287.419 366.491 289.332 370.068 292.14 372.876C294.949 375.683 298.528 377.595 302.423 378.37C306.319 379.144 310.357 378.747 314.027 377.227C317.697 375.708 320.833 373.135 323.04 369.834C325.247 366.532 326.425 362.651 326.425 358.681C326.419 353.359 324.301 348.256 320.536 344.493C316.771 340.729 311.666 338.612 306.341 338.606ZM306.341 377.194C302.678 377.194 299.097 376.109 296.051 374.074C293.005 372.04 290.631 369.148 289.23 365.766C287.828 362.383 287.461 358.66 288.176 355.069C288.89 351.478 290.654 348.179 293.245 345.59C295.835 343.001 299.135 341.237 302.728 340.523C306.321 339.809 310.045 340.175 313.429 341.576C316.814 342.978 319.706 345.351 321.742 348.395C323.777 351.44 324.863 355.019 324.863 358.681C324.863 363.591 322.912 368.3 319.438 371.772C315.965 375.244 311.254 377.194 306.341 377.194Z" fill="#74BAAB"/>
<path d="M306.341 350.501C304.723 350.501 303.141 350.981 301.795 351.88C300.449 352.778 299.4 354.056 298.781 355.551C298.162 357.045 298 358.69 298.315 360.277C298.631 361.863 299.411 363.321 300.555 364.465C301.699 365.609 303.158 366.388 304.745 366.703C306.332 367.019 307.978 366.857 309.473 366.238C310.968 365.619 312.246 364.57 313.146 363.225C314.045 361.88 314.525 360.299 314.525 358.681C314.525 356.511 313.663 354.431 312.128 352.897C310.593 351.363 308.512 350.501 306.341 350.501ZM306.341 365.331C305.032 365.331 303.752 364.942 302.663 364.215C301.574 363.488 300.725 362.454 300.224 361.245C299.723 360.035 299.592 358.705 299.847 357.421C300.103 356.137 300.733 354.958 301.659 354.032C302.585 353.106 303.765 352.476 305.05 352.221C306.334 351.965 307.666 352.096 308.875 352.597C310.085 353.098 311.12 353.946 311.847 355.035C312.575 356.123 312.963 357.403 312.963 358.712C312.945 360.456 312.239 362.122 310.999 363.35C309.76 364.577 308.086 365.266 306.341 365.268V365.331Z" fill="#74BAAB"/>
<path d="M439.382 392.055C436.177 392.055 433.045 393.005 430.38 394.785C427.716 396.564 425.639 399.094 424.413 402.053C423.186 405.012 422.866 408.269 423.491 411.41C424.116 414.552 425.659 417.438 427.925 419.703C430.191 421.967 433.078 423.51 436.221 424.135C439.364 424.76 442.622 424.439 445.582 423.213C448.543 421.987 451.074 419.912 452.854 417.248C454.634 414.585 455.585 411.454 455.585 408.251C455.585 403.955 453.877 399.836 450.839 396.799C447.8 393.761 443.679 392.055 439.382 392.055ZM439.382 415.4C437.966 415.4 436.581 414.98 435.403 414.193C434.225 413.406 433.308 412.288 432.766 410.98C432.224 409.672 432.083 408.232 432.36 406.844C432.637 405.455 433.319 404.18 434.322 403.179C435.324 402.178 436.6 401.497 437.99 401.222C439.379 400.947 440.819 401.09 442.128 401.633C443.436 402.175 444.554 403.094 445.339 404.272C446.125 405.45 446.544 406.835 446.542 408.251C446.54 410.147 445.785 411.966 444.442 413.306C443.1 414.647 441.28 415.4 439.382 415.4Z" fill="#274D76"/>
<path d="M439.382 390.494C435.869 390.494 432.434 391.536 429.513 393.487C426.591 395.438 424.314 398.211 422.97 401.455C421.625 404.7 421.274 408.27 421.959 411.715C422.644 415.159 424.336 418.323 426.821 420.806C429.305 423.29 432.47 424.981 435.916 425.666C439.362 426.351 442.934 425.999 446.18 424.655C449.426 423.311 452.2 421.036 454.152 418.116C456.104 415.196 457.146 411.763 457.146 408.251C457.142 403.543 455.269 399.029 451.939 395.699C448.608 392.37 444.092 390.498 439.382 390.494ZM439.382 424.446C436.177 424.446 433.045 423.496 430.38 421.717C427.716 419.937 425.639 417.408 424.413 414.448C423.186 411.489 422.866 408.233 423.491 405.091C424.116 401.949 425.659 399.064 427.925 396.799C430.191 394.534 433.078 392.991 436.221 392.366C439.364 391.741 442.622 392.062 445.582 393.288C448.543 394.514 451.073 396.59 452.854 399.253C454.634 401.916 455.584 405.047 455.584 408.251C455.584 412.546 453.877 416.665 450.839 419.703C447.8 422.74 443.679 424.446 439.382 424.446Z" fill="#93B4F6"/>
<path d="M439.382 401.093C437.966 401.093 436.582 401.513 435.404 402.3C434.226 403.086 433.309 404.204 432.767 405.512C432.225 406.819 432.083 408.259 432.359 409.647C432.636 411.035 433.318 412.311 434.319 413.312C435.32 414.313 436.596 414.994 437.985 415.27C439.374 415.546 440.814 415.405 442.122 414.863C443.431 414.321 444.549 413.404 445.336 412.227C446.122 411.05 446.542 409.666 446.542 408.251C446.542 406.352 445.788 404.532 444.445 403.19C443.102 401.847 441.281 401.093 439.382 401.093ZM439.382 413.839C438.274 413.839 437.192 413.511 436.271 412.895C435.35 412.28 434.632 411.406 434.209 410.383C433.785 409.36 433.675 408.234 433.892 407.148C434.108 406.062 434.642 405.065 435.426 404.283C436.21 403.501 437.208 402.968 438.295 402.753C439.381 402.538 440.507 402.65 441.53 403.075C442.553 403.5 443.427 404.218 444.041 405.139C444.655 406.061 444.982 407.143 444.981 408.251C444.979 409.733 444.388 411.155 443.338 412.203C442.288 413.25 440.866 413.839 439.382 413.839Z" fill="#93B4F6"/>
<path d="M457.927 421.605C457.927 421.605 446.839 440.548 445.254 454.503L447.511 455.822C455.725 451.069 469.983 428.653 469.983 428.653L457.927 421.605Z" fill="#274D76"/>
<path d="M470.772 427.303L458.716 420.278L457.365 419.498L456.584 420.848C456.123 421.628 445.316 440.243 443.708 454.363L443.598 455.37L444.473 455.885L445.496 456.486L446.73 457.204L447.51 457.664L448.291 457.204C456.74 452.31 470.709 430.448 471.303 429.519L472.17 428.153L470.772 427.303ZM447.51 455.807L445.254 454.488C446.815 440.532 457.927 421.589 457.927 421.589L469.983 428.614C469.983 428.614 455.733 451.069 447.51 455.807Z" fill="#93B4F6"/>
<path d="M447.425 453.387C446.589 452.898 445.627 452.667 444.661 452.724C443.694 452.781 442.766 453.124 441.994 453.708C441.222 454.292 440.641 455.092 440.324 456.007C440.007 456.921 439.968 457.909 440.212 458.846C440.457 459.782 440.974 460.625 441.698 461.268C442.422 461.911 443.32 462.325 444.279 462.457C445.238 462.59 446.215 462.435 447.087 462.013C447.958 461.59 448.684 460.919 449.174 460.084C449.828 458.963 450.011 457.629 449.684 456.374C449.356 455.119 448.543 454.045 447.425 453.387Z" fill="#274D76"/>
<path d="M451.196 455.978C450.833 454.599 450.023 453.379 448.893 452.508C447.763 451.637 446.376 451.164 444.949 451.163C443.962 451.161 442.987 451.387 442.101 451.821C441.214 452.256 440.439 452.888 439.836 453.669C439.232 454.451 438.816 455.36 438.62 456.327C438.423 457.295 438.452 458.294 438.703 459.249C438.912 460.074 439.283 460.85 439.794 461.532C440.305 462.213 440.946 462.787 441.68 463.22C442.414 463.653 443.227 463.936 444.07 464.054C444.914 464.171 445.773 464.121 446.598 463.905C447.422 463.689 448.195 463.312 448.873 462.796C449.551 462.28 450.121 461.635 450.548 460.899C450.975 460.162 451.253 459.348 451.364 458.503C451.475 457.659 451.418 456.801 451.196 455.978ZM449.174 460.084C448.684 460.914 447.959 461.58 447.091 461.998C446.223 462.416 445.25 462.569 444.295 462.435C443.341 462.302 442.447 461.889 441.727 461.248C441.007 460.608 440.493 459.768 440.249 458.836C440.006 457.904 440.044 456.921 440.359 456.01C440.674 455.1 441.251 454.303 442.019 453.72C442.786 453.137 443.709 452.794 444.671 452.735C445.634 452.676 446.592 452.903 447.425 453.387C447.981 453.711 448.468 454.141 448.857 454.653C449.246 455.165 449.531 455.749 449.693 456.372C449.856 456.994 449.894 457.643 449.804 458.28C449.715 458.917 449.501 459.53 449.174 460.084Z" fill="#93B4F6"/>
<path d="M472.302 424.696C472.302 424.696 484.85 401.281 484.968 391.79L482.711 390.471C471.326 398.697 460.238 417.648 460.238 417.648L472.302 424.696Z" fill="#274D76"/>
<path d="M485.756 390.447L484.445 389.667L483.5 389.113L482.625 388.597L481.798 389.191C470.272 397.519 459.348 416.056 458.888 416.844L458.107 418.186L459.45 418.967L471.514 425.991L472.911 426.772L473.692 425.344C474.215 424.376 486.42 401.484 486.545 391.727V390.822L485.756 390.447ZM472.302 424.696L460.238 417.671C460.238 417.671 471.326 398.721 482.711 390.494L484.968 391.813C484.851 401.281 472.302 424.696 472.302 424.696Z" fill="#93B4F6"/>
<path d="M482.805 392.906C483.641 393.394 484.603 393.623 485.569 393.565C486.535 393.506 487.463 393.163 488.234 392.578C489.005 391.993 489.585 391.192 489.901 390.277C490.217 389.363 490.255 388.375 490.009 387.439C489.764 386.503 489.246 385.66 488.522 385.018C487.797 384.376 486.899 383.963 485.939 383.832C484.98 383.7 484.004 383.856 483.133 384.279C482.262 384.702 481.537 385.374 481.048 386.209C480.394 387.33 480.212 388.665 480.541 389.921C480.87 391.176 481.684 392.25 482.805 392.906Z" fill="#274D76"/>
<path d="M488.528 383.111C487.424 382.47 486.154 382.171 484.88 382.252C483.605 382.333 482.384 382.789 481.369 383.564C480.354 384.339 479.592 385.397 479.178 386.604C478.765 387.812 478.719 389.115 479.046 390.349C479.374 391.583 480.06 392.692 481.018 393.536C481.975 394.38 483.162 394.921 484.428 395.091C485.693 395.261 486.981 395.052 488.128 394.491C489.275 393.93 490.229 393.041 490.871 391.938C491.728 390.456 491.963 388.695 491.524 387.041C491.085 385.386 490.008 383.973 488.528 383.111ZM489.497 391.158C489.008 391.996 488.282 392.67 487.409 393.095C486.537 393.52 485.558 393.677 484.597 393.546C483.636 393.415 482.735 393.002 482.008 392.358C481.282 391.715 480.763 390.871 480.517 389.933C480.27 388.995 480.308 388.004 480.625 387.088C480.943 386.171 481.525 385.369 482.298 384.783C483.071 384.197 484.001 383.854 484.97 383.796C485.939 383.739 486.903 383.97 487.74 384.461C488.861 385.116 489.677 386.189 490.008 387.444C490.339 388.7 490.158 390.035 489.504 391.158H489.497Z" fill="#93B4F6"/>
<path d="M464.322 294.242C464.322 279.101 468.32 266.831 473.247 266.831H454.093C449.166 266.831 445.168 279.101 445.168 294.242C445.168 309.384 449.166 321.646 454.093 321.646H473.247C468.336 321.646 464.322 309.376 464.322 294.242Z" fill="#74BAAB"/>
<path d="M469.163 288.326C469.944 288.326 472.74 289.302 474.176 292.962C476.886 290.894 477.3 284.033 477.3 282.948C477.206 276.993 475.285 272.56 473.349 272.654C471.061 272.755 468.827 278.757 469.124 287.14C469.124 287.569 469.148 287.998 469.163 288.326ZM469.241 290.504C467.867 294.656 468.515 311.187 471.193 315.035C471.974 316.104 473.091 316.354 473.7 315.16C475.262 312.085 475.871 304.615 474.988 298.028C474.176 291.979 470.21 290.457 469.241 290.504ZM476.573 291.198C476.339 292.228 475.866 293.188 475.191 294C477.94 302.703 476.121 307.644 476.121 307.644C476.121 307.644 479.525 307.097 479.564 300.307C479.595 295.39 478.518 292.213 476.573 291.198Z" fill="#93B4F6"/>
<path d="M445.098 385.616C444.683 385.537 444.256 385.542 443.844 385.633C443.431 385.723 443.041 385.896 442.698 386.141C442.354 386.386 442.063 386.698 441.844 387.059C441.624 387.419 441.48 387.821 441.42 388.238L441.053 390.806C441.037 390.939 440.973 391.061 440.873 391.15C440.773 391.238 440.644 391.287 440.51 391.287C440.376 391.287 440.247 391.238 440.147 391.15C440.047 391.061 439.983 390.939 439.967 390.806L439.569 388.199C439.498 387.738 439.324 387.298 439.06 386.912C438.796 386.527 438.449 386.205 438.045 385.972C437.64 385.738 437.188 385.598 436.722 385.562C436.256 385.526 435.788 385.595 435.353 385.764C434.681 386.037 434.122 386.53 433.768 387.163C433.415 387.796 433.288 388.53 433.408 389.245L433.713 391.204C433.782 391.638 433.702 392.083 433.487 392.466C433.272 392.849 432.934 393.148 432.527 393.315C432.121 393.482 431.67 393.507 431.247 393.386C430.825 393.265 430.455 393.005 430.199 392.648L428.778 390.681C428.36 390.085 427.749 389.65 427.047 389.451C426.346 389.252 425.598 389.301 424.928 389.589C424.503 389.777 424.126 390.058 423.823 390.411C423.52 390.764 423.3 391.18 423.179 391.629C423.058 392.078 423.038 392.548 423.122 393.005C423.206 393.462 423.391 393.895 423.663 394.272L433.588 407.977C433.878 408.379 434.259 408.706 434.7 408.931C435.142 409.157 435.63 409.274 436.126 409.273C436.758 409.273 442.294 406.291 442.435 406.291C443.997 406.291 445.16 406.362 445.379 404.801L447.581 389.284C447.708 388.472 447.523 387.642 447.062 386.961C446.601 386.28 445.899 385.8 445.098 385.616ZM434.65 410.108C433.299 411.177 434.236 410.803 433.236 411.927C433.236 411.974 437.922 419.404 433.112 425.71C431.807 427.343 430.22 428.728 428.427 429.8C425.592 431.705 422.375 433.859 420.267 439.814C415.519 453.239 425.397 464.79 425.818 465.321C426.075 465.668 426.401 465.959 426.775 466.174C427.15 466.389 427.565 466.524 427.995 466.57C428.424 466.617 428.858 466.574 429.27 466.444C429.682 466.314 430.063 466.1 430.388 465.816C430.713 465.532 430.975 465.183 431.159 464.792C431.342 464.401 431.443 463.977 431.453 463.545C431.464 463.114 431.386 462.684 431.222 462.285C431.059 461.885 430.814 461.524 430.504 461.223C430.425 461.138 422.578 451.935 426.123 441.898C427.544 437.894 429.363 436.677 431.878 434.991C434.251 433.552 436.348 431.702 438.07 429.527C444.231 421.425 441.381 413.636 439.023 410.655C438.514 410.004 437.768 409.581 436.949 409.479C436.13 409.377 435.303 409.603 434.65 410.108Z" fill="#93B4F6"/>
<path d="M308.512 354.809C307.651 354.698 306.777 354.876 306.029 355.317C305.78 355.179 305.518 355.064 305.248 354.973C304.268 354.658 303.202 354.742 302.283 355.209C301.365 355.675 300.668 356.485 300.344 357.463L294.191 375.977C293.865 376.959 293.943 378.03 294.407 378.955C294.871 379.881 295.684 380.583 296.667 380.909C297.064 381.045 297.481 381.114 297.9 381.112C298.575 381.11 299.237 380.934 299.822 380.6C300.408 380.266 300.897 379.787 301.242 379.208L300.969 381.159C300.9 381.667 300.931 382.184 301.062 382.679C301.192 383.175 301.419 383.64 301.729 384.048C302.04 384.456 302.428 384.799 302.871 385.058C303.313 385.316 303.803 385.484 304.311 385.554C304.488 385.565 304.665 385.565 304.842 385.554C305.792 385.562 306.712 385.225 307.431 384.604C308.15 383.983 308.617 383.122 308.746 382.182L311.87 359.196C311.938 358.687 311.905 358.171 311.773 357.675C311.641 357.179 311.413 356.714 311.101 356.307C310.789 355.899 310.4 355.558 309.956 355.301C309.511 355.044 309.021 354.877 308.512 354.809Z" fill="#93B4F6"/>
<path d="M569.401 474.227C576.967 431.775 543.562 396.223 539.924 395.138L536.371 398.791C539.494 402.912 550.965 425.664 548.224 448.61C548.174 449.033 548.032 449.439 547.809 449.801C547.587 450.164 547.288 450.474 546.934 450.709C546.58 450.945 546.179 451.102 545.759 451.168C545.338 451.234 544.909 451.208 544.5 451.092C515.866 443.077 475.894 420.957 475.894 420.957L474.473 423.182L446.597 407.415C446.073 407.119 445.495 406.929 444.897 406.856C444.299 406.783 443.692 406.828 443.112 406.99C442.531 407.151 441.988 407.425 441.514 407.796C441.039 408.167 440.643 408.628 440.346 409.152C440.05 409.676 439.86 410.254 439.787 410.852C439.714 411.449 439.759 412.056 439.921 412.636C440.082 413.216 440.356 413.759 440.727 414.233C441.098 414.707 441.559 415.104 442.084 415.4L470.015 431.197L468.914 432.836C468.914 432.836 512.11 456.751 528.258 473.126C528.662 473.538 528.965 474.038 529.144 474.586C529.323 475.135 529.372 475.717 529.288 476.288C529.204 476.858 528.989 477.402 528.66 477.876C528.331 478.349 527.897 478.741 527.391 479.019C508.495 489.478 481.095 495.792 476.246 494.707L474.473 499.515C477.097 502.208 526.907 509.942 561.928 486.34C564.008 484.924 566.441 484.113 568.956 483.999C569.83 483.999 570.783 482.367 570.4 481.556C569.315 479.275 568.965 476.714 569.401 474.227Z" fill="#274D76"/>
<path d="M570.939 474.539C575.007 451.725 567.362 431.447 560.233 418.46C552.558 404.465 543.008 394.467 540.369 393.679L539.463 393.413L538.799 394.092L535.254 397.745L534.317 398.713L535.098 399.782C538.409 404.114 549.278 426.374 546.647 448.47C546.605 448.805 546.442 449.112 546.189 449.335C545.936 449.558 545.61 449.681 545.272 449.68C545.143 449.68 545.015 449.664 544.89 449.633C516.779 441.758 477.011 419.849 476.613 419.63L475.34 418.928L474.559 420.145L473.911 421.137L447.307 406.096C446.247 405.493 445.03 405.219 443.813 405.31C442.595 405.4 441.433 405.851 440.473 406.604C439.513 407.358 438.799 408.38 438.423 409.541C438.046 410.701 438.024 411.948 438.359 413.121C438.571 413.9 438.937 414.63 439.434 415.266C439.932 415.903 440.551 416.434 441.256 416.828L467.727 431.791L467.563 432.033L466.618 433.445L468.101 434.273C468.211 434.327 479.033 440.329 491.66 448.244C508.323 458.679 520.551 467.686 527.071 474.297C527.307 474.533 527.484 474.822 527.588 475.139C527.693 475.456 527.721 475.793 527.672 476.123C527.617 476.45 527.489 476.761 527.297 477.031C527.105 477.301 526.854 477.525 526.563 477.684C509.33 487.222 484.741 493.294 477.628 493.294C477.256 493.305 476.884 493.276 476.519 493.209L475.176 492.912L474.707 494.2L472.958 498.984L472.623 499.905L473.31 500.608C475.309 502.66 487.966 504.463 500.389 504.463C514.351 504.463 540.993 502.278 562.716 487.628C564.547 486.37 566.69 485.646 568.908 485.536C569.422 485.48 569.913 485.299 570.341 485.009C570.768 484.719 571.118 484.329 571.36 483.874C571.659 483.439 571.846 482.938 571.906 482.414C571.965 481.89 571.896 481.36 571.704 480.869C570.807 478.887 570.54 476.677 570.939 474.539ZM570.314 481.563C570.697 482.344 569.744 483.967 568.87 484.006C566.355 484.121 563.922 484.931 561.842 486.348C542.383 499.476 518.349 502.91 500.389 502.91C486.053 502.91 475.59 500.717 474.426 499.523L476.175 494.738C476.653 494.834 477.14 494.875 477.628 494.863C485.069 494.863 509.838 488.728 527.321 479.05C527.826 478.772 528.26 478.381 528.59 477.907C528.919 477.433 529.134 476.889 529.217 476.319C529.301 475.748 529.252 475.166 529.073 474.617C528.895 474.069 528.592 473.569 528.187 473.157C512.063 456.767 468.843 432.868 468.843 432.868L469.944 431.229L442.013 415.431C440.954 414.833 440.176 413.839 439.85 412.667C439.524 411.495 439.677 410.242 440.276 409.183C440.874 408.125 441.869 407.347 443.042 407.021C444.214 406.695 445.467 406.848 446.527 407.447L474.403 423.213L475.855 420.988C475.855 420.988 515.858 443.077 544.499 451.124C544.753 451.196 545.016 451.232 545.28 451.233C546 451.234 546.695 450.971 547.234 450.493C547.772 450.015 548.116 449.356 548.201 448.642C550.941 425.695 539.502 402.943 536.347 398.822L539.9 395.169C543.539 396.254 576.943 431.806 569.377 474.258C568.939 476.714 569.266 479.245 570.314 481.509V481.563Z" fill="#93B4F6"/>
<path d="M460.402 412.689L453.614 424.291C452.869 425.564 453.297 427.199 454.571 427.943L466.178 434.728C467.451 435.472 469.086 435.044 469.831 433.771L476.619 422.169C477.364 420.897 476.935 419.262 475.662 418.517L464.055 411.732C462.782 410.988 461.146 411.416 460.402 412.689Z" fill="#274D76"/>
<path d="M478.377 419.701C478.094 418.615 477.392 417.686 476.425 417.117L464.814 410.335C464.165 409.954 463.427 409.755 462.675 409.757C461.936 409.759 461.211 409.953 460.57 410.319C459.93 410.686 459.395 411.213 459.02 411.849L452.235 423.455C451.953 423.934 451.769 424.465 451.693 425.015C451.617 425.566 451.65 426.126 451.791 426.664C451.932 427.202 452.177 427.707 452.513 428.15C452.849 428.593 453.269 428.966 453.749 429.246L465.361 436.029C466.329 436.594 467.482 436.752 468.567 436.468C469.652 436.184 470.58 435.482 471.147 434.515L477.94 422.908C478.222 422.429 478.406 421.899 478.481 421.348C478.556 420.798 478.521 420.238 478.377 419.701ZM476.589 422.12L469.788 433.726C469.548 434.132 469.205 434.468 468.794 434.7C468.383 434.931 467.918 435.051 467.446 435.045C466.973 435.045 466.509 434.919 466.103 434.678L454.491 427.896C454.188 427.719 453.923 427.485 453.711 427.205C453.498 426.926 453.344 426.607 453.255 426.268C453.167 425.928 453.146 425.574 453.195 425.227C453.243 424.88 453.36 424.545 453.539 424.243L460.324 412.637C460.683 412.026 461.269 411.583 461.954 411.404C462.639 411.226 463.368 411.327 463.979 411.685L475.59 418.467C475.897 418.64 476.167 418.872 476.384 419.149C476.601 419.427 476.761 419.745 476.854 420.084C476.948 420.424 476.973 420.778 476.929 421.128C476.885 421.477 476.772 421.815 476.597 422.12H476.589Z" fill="#93B4F6"/>
<path d="M534.598 193.791C526.501 193.791 522.401 191.598 518.435 189.475C514.468 187.352 510.712 185.331 503.005 185.331C495.298 185.331 491.558 187.344 487.583 189.475C483.609 191.606 479.517 193.791 471.42 193.791C463.323 193.791 459.231 191.598 455.264 189.475C451.298 187.352 447.534 185.331 439.835 185.331C432.136 185.331 428.388 187.344 424.413 189.475C420.439 191.606 416.347 193.791 408.25 193.791C400.152 193.791 396.053 191.598 392.086 189.475C388.119 187.352 384.363 185.331 376.664 185.331C368.965 185.331 365.155 187.313 361.204 189.475C357.253 191.637 353.13 193.791 345.04 193.791C336.951 193.791 332.843 191.598 328.877 189.475C324.91 187.352 321.154 185.331 313.455 185.331C305.756 185.331 302 187.313 298.002 189.475C294.004 191.637 289.928 193.791 281.838 193.791C273.749 193.791 269.642 191.598 265.675 189.475C261.708 187.352 257.952 185.331 250.253 185.331C242.554 185.331 238.798 187.344 234.831 189.475C230.865 191.606 226.758 193.791 218.668 193.791C210.578 193.791 206.471 191.598 202.505 189.475C198.538 187.352 194.782 185.331 187.083 185.331C179.384 185.331 175.636 187.344 171.661 189.475C167.687 191.606 163.595 193.791 155.498 193.791C147.4 193.791 143.309 191.598 139.342 189.475C135.375 187.352 131.619 185.331 123.92 185.331C116.221 185.331 112.465 187.344 108.498 189.475C104.532 191.606 100.425 193.791 92.335 193.791V192.23C100.034 192.23 103.79 190.224 107.757 188.094C111.723 185.963 115.823 183.77 123.92 183.77C132.018 183.77 136.109 185.971 140.076 188.094C144.043 190.217 147.798 192.23 155.498 192.23C163.197 192.23 166.953 190.224 170.927 188.094C174.902 185.963 178.993 183.77 187.083 183.77C195.172 183.77 199.28 185.971 203.246 188.094C207.213 190.217 210.969 192.23 218.668 192.23C226.367 192.23 230.123 190.224 234.09 188.094C238.056 185.963 242.164 183.77 250.253 183.77C258.343 183.77 262.45 185.971 266.417 188.094C270.383 190.217 274.139 192.23 281.838 192.23C289.538 192.23 293.286 190.224 297.26 188.094C301.235 185.963 305.326 183.77 313.424 183.77C321.521 183.77 325.613 185.971 329.587 188.094C333.562 190.217 337.31 192.23 345.009 192.23C352.708 192.23 356.487 190.224 360.47 188.094C364.452 185.963 368.536 183.77 376.633 183.77C384.73 183.77 388.83 185.971 392.797 188.094C396.763 190.217 400.519 192.23 408.218 192.23C415.917 192.23 419.673 190.224 423.64 188.094C427.607 185.963 431.714 183.77 439.803 183.77C447.893 183.77 452 185.971 455.967 188.094C459.934 190.217 463.69 192.23 471.389 192.23C479.088 192.23 482.844 190.224 486.818 188.094C490.793 185.963 494.884 183.77 502.974 183.77C511.064 183.77 515.171 185.971 519.137 188.094C523.104 190.217 526.86 192.23 534.567 192.23C542.274 192.23 546.014 190.224 549.989 188.094C553.963 185.963 558.055 183.77 566.152 183.77V185.331C558.453 185.331 554.697 187.344 550.73 189.475C546.764 191.606 542.649 193.791 534.598 193.791Z" fill="white"/>
<path d="M473.263 266.831C468.336 266.831 464.338 279.101 464.338 294.242C464.338 309.384 468.336 321.646 473.263 321.646C478.19 321.646 482.188 309.376 482.188 294.242C482.188 279.108 478.19 266.831 473.263 266.831ZM473.263 320.085C470.186 320.085 465.899 310.25 465.899 294.242C465.899 278.234 470.186 268.392 473.263 268.392C476.339 268.392 480.626 278.226 480.626 294.242C480.626 310.258 476.339 320.085 473.263 320.085Z" fill="white"/>
<path d="M302.078 376.562C302.034 376.57 301.989 376.57 301.945 376.562C301.854 376.545 301.768 376.511 301.691 376.46C301.613 376.41 301.546 376.345 301.494 376.269C301.442 376.193 301.405 376.107 301.386 376.017C301.367 375.926 301.366 375.833 301.383 375.743L304.795 357.978C304.813 357.888 304.848 357.801 304.899 357.724C304.95 357.647 305.015 357.581 305.092 357.529C305.168 357.477 305.254 357.441 305.345 357.422C305.435 357.403 305.528 357.403 305.619 357.42C305.71 357.438 305.796 357.473 305.874 357.524C305.951 357.574 306.017 357.64 306.069 357.716C306.121 357.793 306.157 357.879 306.176 357.969C306.194 358.06 306.195 358.153 306.177 358.244L302.773 376.008C302.736 376.165 302.648 376.305 302.522 376.405C302.395 376.506 302.239 376.561 302.078 376.562Z" fill="black"/>
<path d="M440.428 402.373C440.242 402.373 440.063 402.299 439.931 402.168C439.8 402.036 439.726 401.857 439.726 401.671V393.749C439.715 393.65 439.726 393.55 439.756 393.455C439.787 393.36 439.837 393.273 439.904 393.199C439.971 393.125 440.052 393.066 440.143 393.026C440.234 392.985 440.333 392.964 440.432 392.964C440.532 392.964 440.63 392.985 440.721 393.026C440.812 393.066 440.894 393.125 440.96 393.199C441.027 393.273 441.077 393.36 441.108 393.455C441.139 393.55 441.149 393.65 441.139 393.749V401.671C441.139 401.764 441.12 401.856 441.085 401.942C441.049 402.027 440.996 402.105 440.93 402.17C440.864 402.236 440.786 402.287 440.7 402.322C440.613 402.357 440.521 402.374 440.428 402.373Z" fill="black"/>
<path d="M434.884 401.273C434.753 401.273 434.624 401.237 434.512 401.168C434.4 401.099 434.31 401 434.252 400.883L431.589 395.419C431.548 395.336 431.524 395.246 431.518 395.153C431.512 395.061 431.524 394.968 431.553 394.881C431.583 394.793 431.63 394.712 431.691 394.642C431.752 394.573 431.826 394.516 431.909 394.475C431.992 394.434 432.083 394.409 432.175 394.403C432.267 394.397 432.36 394.409 432.448 394.439C432.536 394.469 432.617 394.516 432.686 394.577C432.756 394.638 432.813 394.712 432.854 394.795L435.517 400.258C435.558 400.341 435.583 400.431 435.589 400.524C435.595 400.616 435.583 400.709 435.553 400.797C435.524 400.885 435.477 400.966 435.415 401.036C435.354 401.105 435.28 401.162 435.197 401.203C435.098 401.247 434.992 401.271 434.884 401.273Z" fill="black"/>
<path d="M305.155 93.4654C299.101 92.6779 292.976 92.6046 286.906 93.2469L286.711 91.6859C292.906 91.0318 299.156 91.1051 305.334 91.9044L305.155 93.4654Z" fill="#274D76"/>
</g>
<defs>
<clipPath id="clip0_433_89">
<rect width="679" height="507" fill="white"/>
</clipPath>
</defs>
</svg>
